<?xml version="1.0" encoding="utf-8"?>
<!-- Generator: Adobe Illustrator 15.1.0, SVG Export Plug-In . SVG Version: 6.00 Build 0)  -->
<!DOCTYPE svg PUBLIC "-//W3C//DTD SVG 1.1//EN" "http://www.w3.org/Graphics/SVG/1.1/DTD/svg11.dtd">
<svg version="1.1" id="Layer_1" xmlns="http://www.w3.org/2000/svg" xmlns:xlink="http://www.w3.org/1999/xlink" x="0px" y="0px"
	 width="32px" height="32px" viewBox="-5 -2 32 32" enable-background="new -5 -2 32 32" xml:space="preserve">
<path fill="#fff" d="M9.857-0.857v11.429c0,0.726-0.211,1.387-0.634,1.981C8.8,13.148,8.25,13.564,7.571,13.804v13.91
	c0,0.618-0.227,1.154-0.679,1.607C6.439,29.775,5.905,30,5.286,30H3c-0.619,0-1.154-0.225-1.606-0.679
	c-0.453-0.453-0.679-0.989-0.679-1.607v-13.91c-0.679-0.239-1.229-0.656-1.651-1.251c-0.422-0.595-0.634-1.255-0.634-1.981V-0.857
	c0-0.309,0.113-0.577,0.339-0.803C-1.005-1.887-0.738-2-0.429-2c0.31,0,0.577,0.113,0.804,0.339
	c0.226,0.226,0.339,0.494,0.339,0.803v7.429c0,0.309,0.113,0.577,0.339,0.804C1.28,7.601,1.548,7.714,1.857,7.714
	c0.309,0,0.577-0.113,0.803-0.339C2.887,7.148,3,6.88,3,6.571v-7.429c0-0.309,0.113-0.577,0.339-0.803C3.566-1.887,3.834-2,4.143-2
	C4.452-2,4.72-1.887,4.946-1.661s0.339,0.494,0.339,0.803v7.429c0,0.309,0.113,0.577,0.339,0.804
	C5.852,7.601,6.12,7.714,6.428,7.714c0.31,0,0.577-0.113,0.804-0.339C7.458,7.148,7.571,6.88,7.571,6.571v-7.429
	c0-0.309,0.114-0.577,0.339-0.803C8.137-1.887,8.405-2,8.714-2c0.309,0,0.577,0.113,0.804,0.339
	C9.744-1.435,9.857-1.167,9.857-0.857z M23.571-0.857v28.571c0,0.618-0.227,1.154-0.678,1.607C22.439,29.775,21.904,30,21.286,30H19
	c-0.618,0-1.154-0.225-1.606-0.679c-0.452-0.453-0.68-0.989-0.68-1.607v-9.143h-4c-0.154,0-0.287-0.056-0.401-0.169
	c-0.114-0.112-0.17-0.246-0.17-0.402V3.714c0-1.572,0.561-2.917,1.679-4.035C14.94-1.44,16.286-2,17.857-2h4.571
	c0.309,0,0.577,0.113,0.804,0.339C23.458-1.435,23.571-1.167,23.571-0.857z"/>
</svg>
