<?xml version="1.0" encoding="utf-8"?>
<!-- Generator: Adobe Illustrator 15.1.0, SVG Export Plug-In . SVG Version: 6.00 Build 0)  -->
<!DOCTYPE svg PUBLIC "-//W3C//DTD SVG 1.1//EN" "http://www.w3.org/Graphics/SVG/1.1/DTD/svg11.dtd">
<svg version="1.1" id="Layer_1" xmlns="http://www.w3.org/2000/svg" xmlns:xlink="http://www.w3.org/1999/xlink" x="0px" y="0px"
	 width="32px" height="32px" viewBox="-3 -2 32 32" enable-background="new -3 -2 32 32" xml:space="preserve">
<path fill="#fff" d="M4.077,24.188c0-0.338-0.124-0.63-0.371-0.877s-0.54-0.371-0.877-0.371c-0.338,0-0.63,0.124-0.878,0.371
	c-0.246,0.247-0.37,0.539-0.37,0.877s0.124,0.63,0.37,0.878c0.248,0.246,0.54,0.37,0.878,0.37c0.337,0,0.63-0.124,0.877-0.37
	C3.953,24.818,4.077,24.526,4.077,24.188z M16.635,15.999L3.337,29.298c-0.481,0.48-1.065,0.721-1.755,0.721
	c-0.676,0-1.267-0.24-1.774-0.721l-2.066-2.106C-2.754,26.725-3,26.14-3,25.438c0-0.688,0.246-1.28,0.741-1.774l13.279-13.279
	c0.507,1.273,1.251,2.401,2.232,3.382c0.981,0.982,2.109,1.727,3.384,2.233H16.635z M28.997,7.518c0,0.506-0.148,1.195-0.448,2.066
	c-0.609,1.742-1.68,3.155-3.207,4.24c-1.526,1.085-3.207,1.629-5.04,1.629c-2.405,0-4.462-0.855-6.171-2.565
	c-1.709-1.709-2.564-3.766-2.564-6.171c-0.001-2.404,0.854-4.461,2.564-6.171c1.71-1.71,3.768-2.564,6.171-2.564
	c0.754,0,1.544,0.107,2.368,0.321c0.826,0.216,1.524,0.518,2.097,0.907c0.209,0.144,0.313,0.326,0.313,0.547
	c0,0.222-0.104,0.404-0.313,0.547L19.054,3.6v4.368l3.765,2.086c0.063-0.039,0.577-0.354,1.539-0.945S26.2,7.99,27,7.528
	c0.799-0.462,1.257-0.692,1.376-0.692c0.193,0,0.346,0.064,0.457,0.194C28.943,7.16,29,7.323,29,7.519L28.997,7.518z"/>
</svg>
