<?xml version="1.0" encoding="utf-8"?>
<!-- Generator: Adobe Illustrator 15.1.0, SVG Export Plug-In . SVG Version: 6.00 Build 0)  -->
<!DOCTYPE svg PUBLIC "-//W3C//DTD SVG 1.1//EN" "http://www.w3.org/Graphics/SVG/1.1/DTD/svg11.dtd">
<svg version="1.1" id="Layer_1" xmlns="http://www.w3.org/2000/svg" xmlns:xlink="http://www.w3.org/1999/xlink" x="0px" y="0px"
	 width="24px" height="24px" viewBox="0 0 24 24" enable-background="new 0 0 24 24" xml:space="preserve">
<path fill="#fff" d="M22.276,5.64l0.021-0.021l-4.966-4.953L15.917,2.08l2.813,2.813C17.477,5.373,16.584,6.58,16.584,8
	c0,1.84,1.493,3.333,3.332,3.333c0.475,0,0.928-0.1,1.334-0.28v9.613c0,0.733-0.601,1.334-1.334,1.334
	c-0.732,0-1.333-0.601-1.333-1.334v-5.999c0-1.475-1.192-2.667-2.666-2.667h-1.333V2.667C14.584,1.193,13.391,0,11.917,0h-8
	C2.443,0,1.25,1.193,1.25,2.667V24h13.334V14h2v6.666c0,1.841,1.493,3.334,3.332,3.334c1.841,0,3.334-1.493,3.334-3.334V8
	C23.25,7.08,22.878,6.247,22.276,5.64z M11.917,9.333h-8V2.667h8V9.333z M19.916,9.333c-0.732,0-1.333-0.6-1.333-1.333
	c0-0.733,0.601-1.333,1.333-1.333c0.733,0,1.334,0.6,1.334,1.333C21.25,8.733,20.649,9.333,19.916,9.333z"/>
</svg>
