<?xml version="1.0" encoding="utf-8"?>
<!-- Generator: Adobe Illustrator 15.1.0, SVG Export Plug-In . SVG Version: 6.00 Build 0)  -->
<!DOCTYPE svg PUBLIC "-//W3C//DTD SVG 1.1//EN" "http://www.w3.org/Graphics/SVG/1.1/DTD/svg11.dtd">
<svg version="1.1" id="Capa_1" xmlns="http://www.w3.org/2000/svg" xmlns:xlink="http://www.w3.org/1999/xlink" x="0px" y="0px"
	 width="32px" height="32px" viewBox="233.441 233.441 32 32" enable-background="new 233.441 233.441 32 32" xml:space="preserve">
<path fill="#fff" d="M262.367,247.504h-11.992c-0.672,0-1.216,0.36-1.216,0.804v17.133c0,0.028,5.53,0,5.53,0v-4.423h3.465v4.423
	h5.428v-16.328C263.582,247.864,263.037,247.504,262.367,247.504z M255.546,253.237h-4.391v-4.125h4.391V253.237z M261.585,253.237
	h-4.391v-4.125h4.391V253.237z M255.547,258.95h-4.391v-4.124h4.391V258.95z M261.586,258.95h-4.391v-4.124h4.391V258.95z"/>
<path fill="#fff" d="M253.79,246.356v-11.48c0-0.792-0.641-1.435-1.434-1.435h-14.16c-0.792,0-1.436,0.643-1.436,1.435v30.565
	c1.148,0,6.21,0.013,6.529,0l0.012-5.469h3.946l-0.012-11.664c0-0.848,0.683-1.686,1.579-1.961L253.79,246.356z M244.43,242.791
	h-5.053v-5.827h5.053V242.791L244.43,242.791z M251.173,242.79h-5.052v-5.827h5.052V242.79L251.173,242.79z M244.431,250.667h-5.053
	v-5.827h5.053V250.667L244.431,250.667z M244.431,258.544h-5.053v-5.826h5.053V258.544L244.431,258.544z"/>
</svg>
