<?xml version="1.0" encoding="utf-8"?>
<!-- Generator: Adobe Illustrator 15.1.0, SVG Export Plug-In . SVG Version: 6.00 Build 0)  -->
<!DOCTYPE svg PUBLIC "-//W3C//DTD SVG 1.1//EN" "http://www.w3.org/Graphics/SVG/1.1/DTD/svg11.dtd">
<svg version="1.1" id="Capa_1" xmlns="http://www.w3.org/2000/svg" xmlns:xlink="http://www.w3.org/1999/xlink" x="0px" y="0px"
	 width="32px" height="32px" viewBox="204.349 204.35 32 32" enable-background="new 204.349 204.35 32 32" xml:space="preserve">
<g>
	<g>
		<path fill="#fff" d="M212.308,231.175c-1.024,0-1.823-0.874-1.823-1.893c0-1.063,0.842-1.893,1.823-1.893
			c1.023,0,1.822,0.829,1.822,1.893C214.13,230.345,213.331,231.175,212.308,231.175z M226.263,219.871
			c-0.486-1.063-0.937-1.29-1.996-1.29h-8.002c-1.067,0-1.51,0.233-1.997,1.29l-2.491,5.446h17.02L226.263,219.871z M234.927,215.67
			l-11.284-9.231c-0.937-0.739-2.135-1.154-3.333-1.154c-1.198,0-2.396,0.37-3.333,1.154l-11.292,9.231
			c-1.154,0.875-1.336,1.757-1.336,3.092v15.604c0,1.108,0.842,1.984,1.91,1.984h2.309v-8.636c0-0.74,0.087-1.29,0.443-2.075
			l3.645-7.895c0.443-0.92,1.554-1.659,2.534-1.659h10.312c0.979,0,2.134,0.739,2.533,1.659l3.653,7.895
			c0.355,0.785,0.442,1.335,0.442,2.075v8.628h2.31c1.066,0,1.909-0.875,1.909-1.984v-15.596
			C236.262,217.374,236.081,216.545,234.927,215.67z M228.217,227.39c-1.023,0-1.822,0.829-1.822,1.893
			c0,1.063,0.799,1.893,1.822,1.893c1.024,0,1.823-0.874,1.823-1.893S229.241,227.39,228.217,227.39z M212.533,236.297h15.466
			v-2.813h-15.466V236.297L212.533,236.297z"/>
	</g>
</g>
</svg>
