<?xml version="1.0" encoding="utf-8"?>
<!-- Generator: Adobe Illustrator 15.1.0, SVG Export Plug-In . SVG Version: 6.00 Build 0)  -->
<!DOCTYPE svg PUBLIC "-//W3C//DTD SVG 1.1//EN" "http://www.w3.org/Graphics/SVG/1.1/DTD/svg11.dtd">
<svg version="1.1" id="Capa_1" xmlns="http://www.w3.org/2000/svg" xmlns:xlink="http://www.w3.org/1999/xlink" x="0px" y="0px"
	 width="32px" height="32px" viewBox="290 380 32 32" enable-background="new 290 380 32 32" xml:space="preserve">
<g>
	<path fill="#fff" d="M295.595,380.659c2.214-0.376,5.325-0.66,9.708-0.66c4.429,0,7.587,0.849,9.71,2.545
		c2.072,1.601,3.391,4.241,3.391,7.352c0,3.111-0.99,5.797-2.92,7.541c-2.453,2.261-6.08,3.346-10.322,3.346
		c-0.943,0-1.792-0.048-2.451-0.188V412h-7.116V380.659z M302.712,395.081c0.613,0.141,1.319,0.189,2.403,0.189
		c3.819,0,6.174-1.933,6.174-5.138c0-2.921-2.027-4.665-5.656-4.665c-1.414,0-2.403,0.094-2.922,0.235V395.081z"/>
</g>
</svg>
