<?xml version="1.0" encoding="utf-8"?>
<!-- Generator: Adobe Illustrator 15.1.0, SVG Export Plug-In . SVG Version: 6.00 Build 0)  -->
<!DOCTYPE svg PUBLIC "-//W3C//DTD SVG 1.1//EN" "http://www.w3.org/Graphics/SVG/1.1/DTD/svg11.dtd">
<svg version="1.1" id="Layer_1" xmlns="http://www.w3.org/2000/svg" xmlns:xlink="http://www.w3.org/1999/xlink" x="0px" y="0px"
	 width="32px" height="32px" viewBox="8 8 32 32" enable-background="new 8 8 32 32" xml:space="preserve">
<path fill="#fff" d="M12.333,31.121c0,0,2-1.788,6-1.788c4.693,0,8.459,3.334,12.519,3.334c3.468,0,6-1.5,7.374-2.879
	C38.667,29.347,39,28.587,39,27.874V11.621c0-0.814-0.56-1.48-1.38-1.48c-0.554,0-0.973,0.333-1.394,0.753
	C35.66,11.459,34,12.667,30.02,12.667c-3.633,0-6.514-3.333-11.207-3.333c-4.521,0-6.479,1.473-6.479,1.473v-1.14
	c0-0.92-0.747-1.667-1.667-1.667S9,8.747,9,9.667v28.667C9,39.253,9.747,40,10.667,40s1.667-0.747,1.667-1.667V31.121z M15,14.667
	v10.667c0,0.733-0.6,1.334-1.333,1.334s-1.333-0.601-1.333-1.334V14.667c0-0.733,0.6-1.333,1.333-1.333S15,13.933,15,14.667z"/>
</svg>
