<?xml version="1.0" encoding="utf-8"?>
<!-- Generator: Adobe Illustrator 15.1.0, SVG Export Plug-In . SVG Version: 6.00 Build 0)  -->
<!DOCTYPE svg PUBLIC "-//W3C//DTD SVG 1.1//EN" "http://www.w3.org/Graphics/SVG/1.1/DTD/svg11.dtd">
<svg version="1.1" id="Layer_1" xmlns="http://www.w3.org/2000/svg" xmlns:xlink="http://www.w3.org/1999/xlink" x="0px" y="0px"
	 width="32px" height="32px" viewBox="-2 -2 32 32" enable-background="new -2 -2 32 32" xml:space="preserve">
<path fill="#fff" d="M7.143,19.714c0-0.632-0.223-1.169-0.669-1.616c-0.447-0.446-0.986-0.669-1.616-0.669
	s-1.169,0.223-1.616,0.669c-0.446,0.447-0.669,0.984-0.669,1.616s0.223,1.17,0.669,1.616C3.688,21.776,4.227,22,4.857,22
	s1.169-0.224,1.616-0.67C6.92,20.884,7.143,20.346,7.143,19.714z M25.428,19.714c0-0.632-0.223-1.169-0.669-1.616
	c-0.446-0.446-0.985-0.669-1.616-0.669s-1.17,0.223-1.616,0.669c-0.446,0.447-0.67,0.984-0.67,1.616s0.224,1.17,0.67,1.616
	S22.512,22,23.143,22s1.17-0.224,1.616-0.67S25.428,20.346,25.428,19.714z M24.606,12.643l-1.285-6.856
	c-0.061-0.273-0.194-0.497-0.402-0.67c-0.209-0.173-0.45-0.26-0.724-0.26H5.803c-0.273,0-0.515,0.087-0.724,0.26
	C4.87,5.289,4.736,5.513,4.677,5.786l-1.286,6.856C3.332,13,3.415,13.315,3.642,13.589c0.226,0.273,0.518,0.41,0.875,0.41H23.48
	c0.358,0,0.648-0.137,0.876-0.41C24.582,13.315,24.666,13,24.606,12.643z M20.571,1.715c0-0.238-0.084-0.44-0.25-0.606
	c-0.168-0.166-0.369-0.25-0.607-0.25H8.286c-0.238,0-0.441,0.083-0.607,0.25c-0.166,0.166-0.25,0.369-0.25,0.606
	c0,0.238,0.083,0.44,0.25,0.606c0.167,0.168,0.37,0.251,0.607,0.251h11.428c0.239,0,0.441-0.083,0.607-0.251
	C20.486,2.155,20.571,1.953,20.571,1.715z M27.714,14.661v10.768h-2.286v2.285c0,0.632-0.223,1.17-0.669,1.616S23.773,30,23.143,30
	s-1.17-0.224-1.616-0.67s-0.67-0.984-0.67-1.616v-2.285H7.143v2.285c0,0.632-0.223,1.17-0.669,1.616C6.027,29.776,5.488,30,4.857,30
	s-1.169-0.224-1.616-0.67c-0.446-0.446-0.669-0.984-0.669-1.616v-2.285H0.286V14.661c0-1.334,0.149-2.661,0.447-3.981l1.838-8.107
	C2.68,1.644,3.259,0.828,4.313,0.125C5.365-0.577,6.734-1.106,8.42-1.464C10.105-1.821,11.965-2,14-2s3.895,0.179,5.58,0.536
	s3.055,0.887,4.107,1.589c1.053,0.703,1.634,1.519,1.74,2.447l1.875,8.107C27.578,11.894,27.714,13.221,27.714,14.661z"/>
</svg>
