<?xml version="1.0" encoding="utf-8"?>
<!-- Generator: Adobe Illustrator 15.1.0, SVG Export Plug-In . SVG Version: 6.00 Build 0)  -->
<!DOCTYPE svg PUBLIC "-//W3C//DTD SVG 1.1//EN" "http://www.w3.org/Graphics/SVG/1.1/DTD/svg11.dtd">
<svg version="1.1" id="Capa_1" xmlns="http://www.w3.org/2000/svg" xmlns:xlink="http://www.w3.org/1999/xlink" x="0px" y="0px"
	 width="32px" height="32px" viewBox="290 380 32 32" enable-background="new 290 380 32 32" xml:space="preserve">
<path fill="#fff" d="M318.449,398.815l-10.394,5.743c-0.368-0.259-0.784-0.447-1.225-0.574l-9.868-21.954L290,384.969l1,2.281
	l5.098-2.417l8.425,19.15c-1.83,0.643-2.999,1.751-2.999,3.979c0,2.298,1.863,4.158,4.157,4.158c2.296,0,4.187-1.86,4.16-4.158
	c-0.008-0.679,0.175-0.849-0.208-1.483l8.851-5.063l2.183,1.583l1.174-2.246L318.449,398.815z M305.696,409.368
	c-0.771,0-1.395-0.622-1.395-1.393c0-0.77,0.622-1.394,1.395-1.394c0.77,0,1.395,0.622,1.395,1.394
	C307.09,408.746,306.465,409.368,305.696,409.368z"/>
<polygon fill="#fff" points="308.194,402.075 319.444,396.71 314.086,385.457 302.834,390.82 "/>
<polygon fill="#fff" points="302.249,389.638 308.153,386.822 305.342,380.916 299.437,383.731 "/>
<rect x="307.833" y="380.793" transform="matrix(-0.9026 0.4305 -0.4305 -0.9026 755.1279 595.439)" fill="#fff" width="4.725" height="4.725"/>
</svg>
