<svg version="1.1" xmlns="http://www.w3.org/2000/svg" width="36" height="36" viewBox="0 0 36 36">
<path d="M24.693,12.191c-0.198-0.35-0.51-0.576-0.852-0.619c-0.345-0.041-0.684,0.1-0.935,0.391l-2.162,2.515l-5.073-11.7
	c-0.206-0.472-0.6-0.77-1.032-0.777c-0.425-0.023-0.834,0.277-1.049,0.742L0.158,31.784c-0.212,0.457-0.21,1.021,0,1.479
	C0.373,33.719,0.766,34,1.19,34h33.585c0.008,0,0.016,0,0.021,0c0.659,0,1.298-0.673,1.191-1.479
	C35.816,31.219,24.693,12.191,24.693,12.191z M23.535,15.285l4.554,8.021c0,0-3.831-5.132-4.103-5.129
	c-0.213-0.022-2.995,3.542-2.995,3.542c-0.096,0.119-0.239,0.154-0.365,0.09c-0.125-0.065-0.207-0.217-0.205-0.386l0.01-3.109
	C20.993,18.776,23.535,15.285,23.535,15.285z M14.59,6.521l2.953,6.81c0,0-2.378,2.543-2.468,2.534
	c-0.092-0.01-1.827-2.564-1.935-2.557c-0.109,0.007-2.415,4.453-2.415,4.453c-0.067,0.132-0.188,0.208-0.314,0.193
	c-0.125-0.014-0.235-0.116-0.282-0.261l-0.288-0.907L14.59,6.521z"/>
</svg>
