<svg version="1.1" xmlns="http://www.w3.org/2000/svg" width="32" height="32" viewBox="0 0 32 32">
<path d="M32,16c0,2.904-0.715,5.581-2.146,8.032c-1.43,2.45-3.369,4.391-5.822,5.823C21.58,31.285,18.902,32.001,16,32
	c-2.902-0.001-5.579-0.716-8.031-2.145c-2.452-1.431-4.393-3.371-5.823-5.823C0.715,21.578,0,18.9,0,16
	c0-2.902,0.715-5.579,2.146-8.031c1.431-2.452,3.371-4.394,5.823-5.823C10.421,0.716,13.098,0,16,0c2.902,0,5.58,0.714,8.029,2.146
	c2.455,1.431,4.395,3.373,5.824,5.823C31.285,10.419,32,13.097,32,16z M25.445,17.182v-2.364c0-0.319-0.116-0.597-0.35-0.831
	c-0.234-0.233-0.512-0.351-0.83-0.351h-9.271l3.49-3.489c0.233-0.234,0.351-0.511,0.351-0.831c0-0.32-0.116-0.597-0.351-0.831
	l-1.682-1.681c-0.223-0.221-0.499-0.332-0.831-0.332s-0.609,0.11-0.831,0.332l-8.364,8.364C6.557,15.391,6.446,15.667,6.446,16
	s0.11,0.609,0.332,0.831l8.364,8.364c0.222,0.223,0.499,0.332,0.831,0.332s0.608-0.109,0.83-0.332l1.682-1.682
	c0.223-0.222,0.332-0.498,0.332-0.83s-0.109-0.608-0.332-0.83l-3.489-3.49h9.271c0.319,0,0.598-0.117,0.83-0.35
	C25.329,17.777,25.445,17.502,25.445,17.182z"/>
</svg>
