<svg version="1.1" xmlns="http://www.w3.org/2000/svg" width="36" height="36" viewBox="0 0 36 36">
<path d="M1.949,28.706c0,0.515,0.417,0.933,0.932,0.933h30.237c0.515,0,0.933-0.418,0.933-0.933V13.033H1.949V28.706
	z M24.938,18.302c0-0.246,0.2-0.446,0.446-0.446h4.303c0.246,0,0.445,0.2,0.445,0.446v1.057c0,0.246-0.199,0.446-0.445,0.446h-4.303
	c-0.246,0-0.446-0.2-0.446-0.446V18.302L24.938,18.302z M5.867,18.279c0-0.233,0.19-0.423,0.423-0.423h1.411v-1.412
	c0-0.234,0.189-0.424,0.423-0.424h1.103c0.233,0,0.423,0.189,0.423,0.424v1.412h1.411c0.234,0,0.423,0.189,0.423,0.423v1.103
	c0,0.234-0.189,0.424-0.423,0.424H9.65v1.41c0,0.234-0.189,0.424-0.423,0.424H8.125c-0.234,0-0.423-0.189-0.423-0.424v-1.41H6.29
	c-0.233,0-0.423-0.189-0.423-0.424V18.279L5.867,18.279z M35.128,12.074c0.481,0,0.872-0.391,0.872-0.872V9.737
	c0-0.481-0.391-0.871-0.872-0.871h-4.864V7.232c0-0.481-0.391-0.871-0.872-0.871h-3.755c-0.481,0-0.871,0.39-0.871,0.871v1.634
	h-13.19V7.232c0-0.481-0.39-0.871-0.872-0.871H6.949c-0.481,0-0.872,0.39-0.872,0.871v1.634H0.872C0.39,8.866,0,9.256,0,9.737v1.465
	c0,0.481,0.39,0.872,0.872,0.872h1.078h32.102H35.128L35.128,12.074z"/>
</svg>
