<svg viewBox="0 0 32 32" id="smb-bell" xmlns="http://www.w3.org/2000/svg">
    <path d="M16.285 30.286c0-.19-.096-.286-.285-.286a2.467 2.467 0 0 1-1.813-.759 2.47 2.47 0 0 1-.759-1.813c0-.189-.096-.285-.286-.285-.189 0-.286.096-.286.285 0 .869.309 1.61.921 2.223a3.03 3.03 0 0 0 2.224.92c.188-.001.284-.094.284-.285zm14.572-5.143c0 .619-.227 1.154-.68 1.607s-.988.68-1.607.68h-8c0 1.26-.445 2.338-1.338 3.231C18.339 31.555 17.261 32 16 32c-1.263 0-2.34-.445-3.232-1.339s-1.339-1.972-1.339-3.231h-8c-.619 0-1.154-.227-1.607-.68-.451-.453-.679-.988-.679-1.607.595-.5 1.179-.988 1.625-1.57.984-1.282 2.211-3.084 2.85-4.965C6.5 16 6.855 11.94 6.855 10.286c0-1.81.697-3.491 2.09-5.044 1.394-1.554 3.221-2.498 5.482-2.831C13.953 1.344 14.733 0 16 0c1.344 0 2.016 1.344 1.57 2.41 2.264.333 4.091 1.277 5.482 2.831 1.393 1.553 1.959 3.24 2.09 5.044.209 2.911.44 5.714 1.24 8.322.549 1.789 2.116 4.351 2.85 4.963.563.472 1.03 1.073 1.625 1.573z"></path>
</svg>