<svg version="1.1" id="Layer_1" xmlns="http://www.w3.org/2000/svg" width="36px" height="36px" viewBox="0 0 36 36">
<g>
	<path d="M4.663,4.898c0.064,0.072,5.842,8.882,5.842,8.882s-6.007,6.466-6.036,6.494C4.419,20.332,0,15.36,0,15.246
		C0,15.217,4.599,4.834,4.663,4.898z"/>
	<path d="M27.714,10.346c2.107,1.082,1.717,2.615,1.538,2.96c-0.058,0.101-8.938,9.887-8.938,9.887s-3.931,0.653-4.075,0.718
		c-0.395,0.173-1.135,0.913-1.135,1.136c0,0.122,1.581,2.041,1.581,2.069c0,0.05-3.586,3.987-3.637,3.987
		c-0.078,0-5.008-3.916-5.094-4.052c-0.058-0.087-2.824-5.245-2.824-5.245s6.273-7.085,6.374-7.135
		c0.229-0.107,2.318,0.781,4.569,0.862c0.417,0.015,1.545-0.223,1.545-0.223v0.941c0,1.106,0.064,1.293,0.424,1.329
		c0.354,0.026,0.51-0.337,0.51-1.422v-1.2c0,0,0.762-0.452,0.798-0.452c0.035,0,0.064,0.345,0.064,0.783
		c0,0.617,0.021,0.812,0.114,0.897c0.145,0.151,0.453,0.145,0.618-0.007c0.115-0.101,0.13-0.244,0.13-1.25v-1.128l0.574-0.46v0.574
		c0,0.446,0.029,0.611,0.13,0.733c0.158,0.194,0.467,0.208,0.661,0.036c0.129-0.115,0.144-0.23,0.144-1.078v-0.941
		c0,0,3.219-2.256,3.938-2.436C26.291,10.087,27.168,10.137,27.714,10.346z"/>
	<path d="M33.304,12.437c0.302,0.158,2.458,2.162,2.595,2.414c0.129,0.229,0.129,0.273,0.035,0.524
		c-0.122,0.33-9.692,10.792-10.073,11.015c-0.374,0.558-3.313-2.321-3.355-2.393c-0.108-0.209-0.087-0.525,0.057-0.748
		c0.188-0.294,9.801-10.728,9.967-10.813C32.722,12.336,33.117,12.336,33.304,12.437z"/>
	<path d="M32.478,21.547c0.676,0.538,0.661,0.467,0.683,2.917l0.015,2.148h-0.23c-0.187,0-0.51-0.223-1.811-1.243
		c-1.365-1.07-1.588-1.279-1.588-1.438c0-0.144,2.026-2.421,2.127-2.515C31.925,21.194,32.062,21.216,32.478,21.547z"/>
</g>
</svg>
