<?xml version="1.0" encoding="utf-8"?>
<!-- Generator: Adobe Illustrator 15.1.0, SVG Export Plug-In . SVG Version: 6.00 Build 0)  -->
<!DOCTYPE svg PUBLIC "-//W3C//DTD SVG 1.1//EN" "http://www.w3.org/Graphics/SVG/1.1/DTD/svg11.dtd">
<svg version="1.1" id="Capa_1" xmlns="http://www.w3.org/2000/svg" xmlns:xlink="http://www.w3.org/1999/xlink" x="0px" y="0px"
	 width="36px" height="36px" viewBox="-2 -2 36 36" enable-background="new -2 -2 36 36" xml:space="preserve">
<g>
	<path d="M21.357,28.074v1.372c0,1.092-0.804,2.002-1.847,2.155l-0.34,1.247C18.988,33.526,18.377,34,17.672,34h-3.353
		c-0.707,0-1.315-0.474-1.5-1.151l-0.328-1.247c-1.054-0.163-1.856-1.063-1.856-2.165v-1.373c0-0.734,0.59-1.324,1.324-1.324h8.072
		C20.766,26.748,21.357,27.338,21.357,28.074z"/>
	<path d="M27.57,9.572c0,3.123-1.235,5.955-3.248,8.032c-1.525,1.585-2.514,3.606-2.841,5.763c-0.144,0.927-0.947,1.615-1.895,1.615
		h-7.182c-0.938,0-1.75-0.678-1.885-1.605c-0.339-2.157-1.334-4.206-2.861-5.781c-1.972-2.05-3.2-4.833-3.229-7.898
		C4.362,3.259,9.485-1.952,15.923-2C22.351-2.048,27.57,3.152,27.57,9.572z M17.305,2.562c0-0.714-0.58-1.304-1.304-1.304
		C11.399,1.258,7.648,5,7.648,9.61c0,0.715,0.58,1.304,1.305,1.304c0.715,0,1.305-0.579,1.305-1.304
		c0-3.171,2.582-5.742,5.742-5.742C16.725,3.868,17.305,3.288,17.305,2.562z"/>
</g>
</svg>
