<svg version="1.1" xmlns="http://www.w3.org/2000/svg" width="36px" height="36px" viewBox="0 0 36 36">
<g>
	<path d="M26.955,7.6c1.406,0,2.535-1.111,2.535-2.492V2.497C29.49,1.114,28.361,0,26.955,0c-1.396,0-2.531,1.114-2.531,2.497v2.611
		C24.424,6.489,25.559,7.6,26.955,7.6z"/>
	<path d="M35.96,4.324h-5.105v1.265c0,2.1-1.729,3.805-3.855,3.805c-2.129,0-3.854-1.705-3.854-3.805V4.324H12.856v1.265
		c0,2.1-1.726,3.805-3.855,3.805c-2.133,0-3.855-1.705-3.855-3.805V4.324L0,4.259v31.738L2.572,36h30.855L36,35.99L35.96,4.324z
		 M33.428,33.474H2.572V13.194h30.855V33.474z"/>
	<path d="M8.956,7.6c1.403,0,2.535-1.111,2.535-2.492V2.497C11.491,1.114,10.359,0,8.956,0C7.56,0,6.425,1.114,6.425,2.497v2.611
		C6.425,6.489,7.56,7.6,8.956,7.6z"/>
	<path d="M9.516,26.887c0.53,0.286,1.733,0.766,2.944,0.766c1.535,0,2.31-0.726,2.31-1.649c0-1.241-1.25-1.8-2.545-1.8h-1.206
		v-2.091h1.161c0.996,0,2.242-0.384,2.242-1.438c0-0.75-0.607-1.305-1.868-1.305c-1.029,0-2.117,0.442-2.626,0.751l-0.605-2.108
		c0.766-0.48,2.258-0.939,3.915-0.939c2.687,0,4.174,1.396,4.174,3.101c0,1.326-0.752,2.38-2.312,2.895v0.042
		c1.518,0.268,2.746,1.401,2.746,3.047c0,2.184-1.967,3.795-5.175,3.795c-1.637,0-3.014-0.419-3.751-0.864L9.516,26.887z"/>
	<polygon points="23.567,19.871 23.53,19.871 21.118,21.001 20.633,18.814 23.996,17.284 26.428,17.284 26.428,29.744 
		23.567,29.744 	"/>
</g>
</svg>
