<svg version="1.1" xmlns="http://www.w3.org/2000/svg" width="32" height="32" viewBox="0 0 32 32">
<path d="M11.084,0c0.727,0,1.342,0.254,1.85,0.762l13.371,13.369c0.521,0.521,0.78,1.145,0.78,1.869
	c0,0.738-0.261,1.355-0.78,1.85L12.934,31.221C12.439,31.74,11.824,32,11.085,32c-0.726,0-1.349-0.26-1.869-0.779L7.676,29.7
	c-0.507-0.534-0.76-1.157-0.76-1.869c0-0.726,0.253-1.343,0.76-1.849L17.658,16L7.675,6.02c-0.507-0.508-0.76-1.123-0.76-1.851
	c0-0.711,0.253-1.335,0.76-1.868l1.54-1.541C9.749,0.254,10.372,0,11.084,0L11.084,0z"/>
</svg>
