<svg viewBox="0 0 32 32" id="smb-cog" xmlns="http://www.w3.org/2000/svg">
    <path d="M21.334 16c0-1.473-.521-2.729-1.563-3.771-1.043-1.041-2.299-1.563-3.771-1.563-1.473-.001-2.729.521-3.77 1.563-1.043 1.043-1.563 2.299-1.563 3.771s.521 2.729 1.563 3.771c1.041 1.041 2.297 1.563 3.77 1.563 1.472-.002 2.728-.521 3.771-1.563 1.042-1.042 1.563-2.298 1.563-3.771zM32 13.729v4.625a.819.819 0 0 1-.166.48.637.637 0 0 1-.416.27l-3.855.584c-.264.75-.533 1.381-.811 1.896.484.694 1.229 1.653 2.229 2.877a.79.79 0 0 1 .207.521c0 .18-.061.34-.188.479-.375.514-1.063 1.264-2.063 2.25s-1.652 1.479-1.959 1.479c-.166 0-.348-.063-.541-.188l-2.875-2.25a11.93 11.93 0 0 1-1.896.793c-.223 1.889-.424 3.18-.604 3.875-.095.385-.347.58-.749.58h-4.625a.798.798 0 0 1-.51-.178.616.616 0 0 1-.24-.447l-.582-3.834a12.904 12.904 0 0 1-1.875-.771L7.542 29a.753.753 0 0 1-.521.188.715.715 0 0 1-.521-.229c-1.75-1.584-2.896-2.75-3.438-3.5a.813.813 0 0 1 .021-.958c.208-.293.562-.754 1.063-1.387.5-.631.875-1.121 1.125-1.467a10.312 10.312 0 0 1-.854-2.063L.604 19.02c-.18-.027-.326-.113-.438-.26S0 18.45 0 18.271v-4.627c0-.166.056-.326.167-.479s.243-.243.396-.271l3.875-.582c.193-.64.465-1.278.813-1.918-.555-.79-1.298-1.749-2.229-2.874-.14-.166-.209-.332-.209-.5 0-.139.063-.299.188-.479.36-.501 1.045-1.247 2.052-2.24 1.008-.992 1.663-1.488 1.969-1.488.181 0 .361.068.543.209L10.44 5.25c.61-.318 1.242-.583 1.896-.792.222-1.89.424-3.181.604-3.874.098-.391.347-.584.75-.584h4.625c.193 0 .363.059.51.178a.613.613 0 0 1 .24.447l.582 3.833c.682.224 1.307.479 1.875.771L24.479 3a.68.68 0 0 1 .502-.188c.18 0 .354.068.521.207 1.791 1.653 2.936 2.834 3.438 3.543.098.109.146.264.146.457a.803.803 0 0 1-.168.479c-.207.292-.563.754-1.063 1.386-.5.633-.875 1.121-1.125 1.469.361.694.646 1.375.855 2.041l3.813.584a.656.656 0 0 1 .438.26c.107.147.164.31.164.491z"></path>
</svg>