<svg width="32" height="32" viewBox="0 0 32 32" xmlns="http://www.w3.org/2000/svg">
<path d="M29.43 17.749C28.012 17.749 26.864 18.896 26.864 20.314V26.868H5.138V20.314C5.138 18.896 3.989 17.749 2.572 17.749C1.155 17.749 0.00599736 18.896 0.00599736 20.314V29.433C0.00499736 30.852 1.154 32 2.571 32H29.427C30.845 32 31.993 30.852 31.993 29.434V20.317C31.996 18.896 30.846 17.749 29.43 17.749Z" />
<path d="M10.5667 11.6265L13.4317 8.7615L13.4317 18.3225C13.4327 19.7395 14.5807 20.8885 15.9987 20.8885C17.4157 20.8885 18.5647 19.7395 18.5647 18.3225V8.7615L21.4297 11.6265C21.9307 12.1275 22.5867 12.3775 23.2437 12.3775C23.9007 12.3775 24.5567 12.1275 25.0587 11.6265C26.0597 10.6245 26.0597 8.9995 25.0587 7.9975L17.8137 0.751505C16.8117 -0.250495 15.1867 -0.250495 14.1847 0.751505L6.94074 7.9975C5.93874 8.9995 5.93874 10.6245 6.94074 11.6265C7.93974 12.6285 9.56474 12.6285 10.5667 11.6265Z"/>
</svg>
