<svg version="1.1" xmlns="http://www.w3.org/2000/svg" width="32" height="32" viewBox="0 0 32 32">
<g>
	<path d="M29.43,17.749c-1.418,0-2.566,1.147-2.566,2.565v6.554H5.138v-6.554c0-1.418-1.149-2.565-2.566-2.565
		s-2.566,1.147-2.566,2.565v9.119C0.005,30.852,1.154,32,2.571,32h26.856c1.418,0,2.566-1.148,2.566-2.566v-9.117
		C31.996,18.896,30.846,17.749,29.43,17.749z"/>
	<path d="M21.432,9.262l-2.865,2.865V2.566C18.566,1.149,17.418,0,16,0c-1.417,0-2.566,1.149-2.566,2.566v9.561l-2.865-2.865
		c-0.501-0.501-1.157-0.751-1.814-0.751c-0.657,0-1.313,0.25-1.815,0.751c-1.001,1.002-1.001,2.627,0,3.629l7.245,7.246
		c1.002,1.002,2.627,1.002,3.629,0l7.244-7.246c1.002-1.002,1.002-2.627,0-3.629C24.059,8.26,22.434,8.26,21.432,9.262z"/>
</g>
</svg>
