<svg version="1.1" xmlns="http://www.w3.org/2000/svg" width="36" height="36" viewBox="0 0 36 36">
<path d="M34.976,13.943l-2.007,2.008l-5.594-5.592l2.009-2.009c0.633-0.632,1.583-0.71,2.12-0.174l3.646,3.647
	C35.687,12.359,35.609,13.311,34.976,13.943z M26.445,11.291l5.592,5.592L18.701,30.218c-0.062,0.062-0.231,0.231-0.47,0.292
	c-0.026,0.014-0.056,0.023-0.083,0.033l-6.96,2.218c-0.194,0.062-0.39,0.021-0.517-0.104c-0.127-0.127-0.167-0.322-0.105-0.519
	l2.217-6.959c0.01-0.028,0.021-0.056,0.035-0.083c0.061-0.238,0.229-0.408,0.291-0.471l2.506-2.506H7.152
	c-0.342,0-0.619-0.276-0.619-0.617c0-0.342,0.277-0.618,0.619-0.618h9.699L26.445,11.291z M16.98,29.789l-3.443-3.442l-0.922,2.899
	l1.467,1.467L16.98,29.789z M26.229,13.514c-0.198-0.197-0.521-0.197-0.717,0L15.117,23.908c-0.199,0.199-0.199,0.521,0,0.717
	c0.197,0.199,0.519,0.199,0.717,0L26.229,14.23C26.427,14.031,26.427,13.711,26.229,13.514z M25.601,33.304
	c0,0.371-0.302,0.674-0.673,0.674H12.66l-1.108,0.354c-0.224,0.07-0.451,0.105-0.681,0.105c-0.487,0-0.94-0.167-1.312-0.46H3.191
	c-0.371,0-0.674-0.302-0.674-0.674V4.998c0-0.373,0.303-0.674,0.674-0.674h2.527v1.066c0,0.372,0.301,0.674,0.674,0.674
	c0.372,0,0.674-0.302,0.674-0.674V4.324h3.875v1.066c0,0.372,0.303,0.674,0.674,0.674c0.373,0,0.674-0.302,0.674-0.674V4.324h3.371
	v1.066c0,0.372,0.301,0.674,0.674,0.674c0.371,0,0.674-0.302,0.674-0.674V4.324h3.708v1.066c0,0.372,0.301,0.674,0.673,0.674
	c0.373,0,0.675-0.302,0.675-0.674V4.324h2.864c0.371,0,0.674,0.303,0.674,0.674v4.668l0.706-0.707l1.315-1.314V4.998
	c0-1.485-1.209-2.695-2.695-2.695h-2.864V0.675C22.063,0.303,21.762,0,21.389,0c-0.371,0-0.673,0.303-0.673,0.675v1.628h-3.709
	V0.675C17.006,0.303,16.705,0,16.332,0s-0.674,0.303-0.674,0.675v1.628h-3.369V0.675C12.289,0.303,11.988,0,11.615,0
	S10.94,0.303,10.94,0.675v1.628H7.065V0.675C7.065,0.303,6.763,0,6.391,0C6.018,0,5.717,0.303,5.717,0.675v1.628H3.19
	c-1.485,0-2.696,1.209-2.696,2.695v28.307C0.494,34.791,1.705,36,3.19,36h21.736c1.486,0,2.695-1.209,2.695-2.695v-9.813
	L25.6,25.514L25.601,33.304L25.601,33.304L25.601,33.304z M20.338,10.377H7.15c-0.341,0-0.617,0.275-0.617,0.617
	c0,0.343,0.276,0.619,0.617,0.619h13.188c0.341,0,0.617-0.276,0.617-0.619C20.955,10.652,20.678,10.377,20.338,10.377z
	 M20.338,15.359H7.15c-0.341,0-0.617,0.276-0.617,0.618c0,0.341,0.276,0.618,0.617,0.618h13.188c0.341,0,0.617-0.275,0.617-0.618
	C20.955,15.637,20.678,15.359,20.338,15.359z"/>
</svg>
