<svg width="32" height="32" viewBox="0 0 32 32" fill="none" xmlns="http://www.w3.org/2000/svg">
<g clip-path="url(#clip0)">
<path d="M28.8024 21.6286V1.6003C28.8024 0.716468 28.0859 0 27.2021 0H2.66414C1.78031 0 1.06384 0.716468 1.06384 1.6003V26.1382C1.06384 27.0221 1.78031 27.7385 2.66414 27.7385H19.4252C20.3131 30.8552 23.5595 32.6619 26.6762 31.774C29.1947 31.0564 30.9328 28.7569 30.9362 26.1382C30.9406 24.3903 30.1568 22.7335 28.8024 21.6286ZM19.9277 23.3132C19.9052 23.3542 19.885 23.3969 19.8631 23.4385C19.797 23.5644 19.7345 23.6924 19.6775 23.8237C19.6652 23.8519 19.654 23.8807 19.6423 23.9095C19.5804 24.0571 19.5249 24.2079 19.4758 24.3619C19.4689 24.3838 19.462 24.4046 19.4556 24.4264C19.4068 24.5843 19.3654 24.7452 19.3313 24.9092C19.3259 24.9337 19.3195 24.9577 19.3147 24.9828C19.3099 25.0079 19.2993 25.0447 19.2939 25.0762C19.2843 25.1295 19.2838 25.1829 19.2758 25.2362C19.2497 25.4048 19.2305 25.5744 19.2187 25.7472C19.2134 25.8267 19.2091 25.9073 19.207 25.9846C19.207 26.0379 19.199 26.0876 19.199 26.1398C19.199 26.278 19.2102 26.4162 19.2198 26.5543V26.6733L2.66414 26.6717C2.36955 26.6717 2.13071 26.4328 2.13071 26.1382V1.6003C2.13071 1.30571 2.36955 1.06687 2.66414 1.06687H27.2021C27.4967 1.06687 27.7355 1.30571 27.7355 1.6003V20.9143L27.7238 20.9095C27.2549 20.67 26.7554 20.4959 26.2392 20.3921L26.1859 20.3814C25.9393 20.3331 25.6899 20.3011 25.4391 20.2854C25.4108 20.2854 25.3825 20.2854 25.3543 20.2817C25.2583 20.2774 25.1638 20.2705 25.0683 20.2705C24.9467 20.2705 24.8278 20.2817 24.7077 20.2886C24.6683 20.2913 24.6283 20.2886 24.5888 20.2886C24.5669 20.2886 24.5456 20.2945 24.5237 20.2966C24.4586 20.3025 24.3952 20.3121 24.3306 20.3206C24.2175 20.335 24.105 20.351 23.9929 20.374C23.9108 20.3894 23.8297 20.4076 23.7486 20.4273C23.6676 20.447 23.5886 20.4668 23.5091 20.4886C23.4024 20.518 23.3011 20.5484 23.1987 20.5825L23.1026 20.6177C21.8518 21.0663 20.7893 21.9244 20.0877 23.0529C20.0343 23.1387 19.981 23.2241 19.9277 23.3132ZM25.0683 30.9391C22.7889 30.9336 20.8256 29.3307 20.364 27.0984C20.3321 26.9431 20.3083 26.7862 20.2925 26.6285C20.2893 26.5965 20.2925 26.5644 20.2872 26.5324C20.277 26.4076 20.269 26.2823 20.2685 26.159C20.2685 26.11 20.2728 26.0604 20.2738 26.0113C20.277 25.9003 20.2803 25.7894 20.2909 25.6805C20.2952 25.6315 20.3037 25.5824 20.3101 25.5333C20.3251 25.4154 20.3405 25.297 20.3635 25.1818C20.3635 25.1733 20.3672 25.1647 20.3693 25.1562C20.4003 25.0074 20.4376 24.8607 20.4824 24.7172V24.7097C20.5283 24.5639 20.5806 24.4216 20.6393 24.283L20.6457 24.268C20.7027 24.1341 20.7662 24.0013 20.8345 23.8765C20.8398 23.8663 20.8446 23.8562 20.85 23.8466C20.9177 23.7223 20.9918 23.6018 21.0703 23.4844C21.1193 23.4113 21.1727 23.342 21.2255 23.271C21.2564 23.23 21.2863 23.1873 21.3188 23.1467C21.3919 23.0561 21.4693 22.9686 21.5488 22.8832L21.576 22.8533C22.0919 22.3104 22.7255 21.893 23.428 21.6334C23.4675 21.619 23.5065 21.603 23.5465 21.5896C23.6222 21.564 23.699 21.5422 23.7758 21.5203C23.8527 21.4984 23.922 21.4808 23.9961 21.4638C24.0564 21.4499 24.1172 21.4366 24.1786 21.4248C24.2757 21.4067 24.3738 21.3923 24.473 21.38C24.5205 21.3741 24.568 21.3667 24.6155 21.3624C24.7189 21.3528 24.8235 21.3496 24.9286 21.3464C24.9819 21.3464 25.0395 21.34 25.095 21.3405C25.1286 21.3405 25.1622 21.3437 25.1958 21.3448C25.3025 21.3475 25.4119 21.3523 25.5191 21.3629C25.5543 21.3661 25.589 21.3715 25.6258 21.3752C25.7325 21.388 25.8392 21.4024 25.9432 21.4221C25.9752 21.428 26.0072 21.435 26.0392 21.4419C26.1459 21.4636 26.2526 21.4892 26.3593 21.5187L26.4489 21.5443C26.5534 21.5763 26.6569 21.6119 26.7593 21.651C26.7892 21.6622 26.8185 21.6729 26.8479 21.6846C26.9482 21.7246 27.0458 21.7689 27.1429 21.8158C27.1738 21.8308 27.2047 21.8441 27.2352 21.8596C27.3306 21.9081 27.424 21.962 27.5163 22.0196C27.5451 22.0367 27.575 22.0521 27.6032 22.0703C27.7216 22.1439 27.8369 22.2228 27.9489 22.3071H27.9521C29.1633 23.2072 29.8748 24.6292 29.8692 26.1382C29.8663 28.7885 27.7186 30.9362 25.0683 30.9391Z" fill="black"/>
<path d="M24.0015 4.26747H5.86475V16.003H9.06535V18.1367H11.1991V20.2705H18.6672V18.1367H20.8009V16.003H24.0015V4.26747ZM22.9346 14.9361H19.734V17.0699H17.6003V19.2036H12.266V17.0699H10.1322V14.9361H6.93162V5.33434H7.99849V9.06837H9.06535V5.33434H10.1322V9.06837H11.1991V5.33434H12.266V9.06837H13.3328V5.33434H14.3997V9.06837H15.4666V5.33434H16.5334V9.06837H17.6003V5.33434H18.6672V9.06837H19.734V5.33434H20.8009V9.06837H21.8678V5.33434H22.9346V14.9361Z" fill="black"/>
<path d="M14.9331 23.4711H4.26445V24.5379H14.9331V23.4711Z" fill="black"/>
<path d="M18.1337 23.4711H16V24.5379H18.1337V23.4711Z" fill="black"/>
<path d="M27.4 23L22 28.4L22.6 29L28 23.6L27.4 23Z" fill="black"/>
<path d="M22 23.6L27.4 29L28 28.4L22.6 23L22 23.6Z" fill="black"/>
</g>
<defs>
<clipPath id="clip0">
<rect width="32" height="32" fill="white"/>
</clipPath>
</defs>
</svg>
