<svg version="1.1" xmlns="http://www.w3.org/2000/svg" width="32" height="32" viewBox="0 0 32 32">
<path d="M16,6C9.021,6,2.973,10.064,0,16c2.973,5.938,9.021,10,16,10s13.027-4.063,16-10
	C29.027,10.064,22.979,6,16,6z M23.889,11.303c1.881,1.199,3.475,2.807,4.67,4.697c-1.195,1.893-2.789,3.498-4.67,4.697
	C21.527,22.203,18.799,23,16,23s-5.527-0.797-7.889-2.303c-1.881-1.2-3.473-2.807-4.67-4.697c1.197-1.893,2.789-3.498,4.67-4.697
	c0.123-0.078,0.246-0.154,0.371-0.229c-0.312,0.855-0.481,1.775-0.481,2.738c0,4.418,3.582,8,8,8s8-3.582,8-8
	c0-0.963-0.17-1.883-0.481-2.738C23.643,11.148,23.768,11.225,23.889,11.303z M16,12.813c0,1.656-1.344,3-3,3s-3-1.344-3-3
	c0-1.658,1.344-3,3-3S16,11.156,16,12.813z"/>
</svg>
