<svg version="1.1" xmlns="http://www.w3.org/2000/svg" width="36" height="36" viewBox="0 0 36 36">
	<path d="M30.883,20.02L18,9.29L5.119,20.02v15.024h25.764V20.02L30.883,20.02z M17.993,14.8v16.011h-8.64v-8.81
		l8.633-7.202L17.993,14.8L17.993,14.8z"/>
	<!--<path d="M5.118,20.018v15.026h25.765V20.018L18,9.289L5.118,20.018L5.118,20.018z"/>-->
	<path d="M5.119,20.02v15.024h25.764V20.02L18,9.29L5.119,20.02L5.119,20.02z M18,14.8l8.648,7.202v8.811H9.353v-8.811L18,14.8
		L18,14.8z"/>
	<path d="M0,15.946l2.607,3.131c0,0,13.177-10.974,15.393-12.819c2.217,1.845,15.393,12.819,15.393,12.819L36,15.946L18,0.957
		L0,15.946z"/>
</svg>
