<svg version="1.1" xmlns="http://www.w3.org/2000/svg" width="32" height="32" viewBox="0 0 32 32">
	<rect x="14" y="11" stroke="#" fill="#FFFFFF" width="18" height="21"/>
	<rect x="1" y="1" fill="#646464" stroke="#FFFFFF" stroke-width="2" width="17" height="20"/>
	<path fill="#FFFFFF" d="M6.069,5.337v3.762c0.32-0.048,0.8-0.096,1.201-0.096c2.225,0,4.274,1.104,4.274,3.538
		c0,1.008-0.336,1.777-0.865,2.321c-1.04,1.057-2.849,1.376-4.417,1.376c-1.185,0-2.065-0.08-2.609-0.16V5.337H6.069z
		 M6.069,14.349c0.192,0.048,0.497,0.064,0.816,0.064c1.072,0,2.097-0.624,2.097-1.809c0-1.232-1.136-1.729-2.064-1.729
		c-0.32,0-0.608,0.032-0.849,0.064V14.349z M14.969,5.337v10.789h-2.433V5.337H14.969z"/>
	<path fill="#646464" d="M21.683,24.611l-0.769,2.77h-2.513l3.281-10.789h3.201l3.361,10.789h-2.641l-0.832-2.77H21.683z
		 M24.42,22.787l-0.673-2.289c-0.191-0.641-0.384-1.44-0.544-2.081h-0.032c-0.159,0.641-0.319,1.457-0.496,2.081l-0.64,2.289H24.42
		z"/>
</svg>
