<svg version="1.1" xmlns="http://www.w3.org/2000/svg" width="36" height="36" viewBox="0 0 36 36">
<path d="M33.537,2.46c-3.279-3.28-8.598-3.28-11.877,0l-6.293,6.287c-0.173,0.173-0.223,0.435-0.126,0.66
	c0.095,0.226,0.319,0.371,0.564,0.366h0.222c1.314-0.002,2.616,0.252,3.833,0.75c0.225,0.092,0.482,0.041,0.654-0.132l4.518-4.511
	c1.406-1.406,3.686-1.406,5.093,0c1.406,1.406,1.406,3.687,0,5.093l-7.644,7.631c-1.584,1.254-3.408,1.402-5.086,0
	c-0.947-0.892-2.424-0.892-3.371,0c-0.41,0.41-0.658,0.956-0.696,1.535c-0.044,0.688,0.21,1.36,0.696,1.848
	c1.144,1.181,7.31,3.764,11.877-0.012l7.637-7.637C36.817,11.058,36.817,5.74,33.537,2.46z M2.46,33.541
	c3.279,3.279,8.598,3.279,11.878,0l6.293-6.287c0.173-0.174,0.223-0.436,0.126-0.66c-0.095-0.227-0.318-0.371-0.563-0.365h-0.222
	c-1.314,0.002-2.616-0.254-3.833-0.75c-0.225-0.094-0.482-0.041-0.654,0.131l-4.519,4.512c-1.406,1.406-3.686,1.406-5.093,0
	c-1.406-1.406-1.406-3.688,0-5.094l7.644-7.63c1.585-1.254,3.409-1.402,5.087,0c0.947,0.892,2.425,0.892,3.371,0
	c0.41-0.41,0.658-0.956,0.696-1.535c0.044-0.688-0.21-1.36-0.696-1.848c-1.144-1.181-7.31-3.764-11.878,0.012L2.46,21.662
	C-0.82,24.941-0.82,30.26,2.46,33.541z"/>
</svg>
