<svg width="34" height="25" viewBox="0 0 34 25" fill="none" xmlns="http://www.w3.org/2000/svg">
<path d="M7.58752 0.18752L1.18739 6.58995C1.06746 6.71002 1 6.87245 1 7.04256V20.48C1 21.892 2.14803 23.04 3.56 23.04H29.16C30.572 23.04 31.72 21.892 31.72 20.48V2.56C31.72 1.14816 30.572 0 29.16 0H8.04C7.87002 0 7.70746 0.067456 7.58752 0.18752ZM29.16 1.28C29.8657 1.28 30.44 1.85434 30.44 2.56V20.48C30.44 21.1855 29.8657 21.76 29.16 21.76H3.56C2.85434 21.76 2.28 21.1857 2.28 20.48V7.30739L8.30496 1.28H29.16Z" fill="black"/>
<path d="M14.44 19.2001H25.96C27.0188 19.2001 27.88 18.3388 27.88 17.28V5.76C27.88 4.70118 27.0188 3.84 25.96 3.84H14.44C13.3812 3.84 12.52 4.70118 12.52 5.76V17.28C12.52 18.3388 13.3813 19.2001 14.44 19.2001ZM26.6 14.72V17.28C26.6 17.6331 26.3133 17.9201 25.96 17.9201H23.4V14.72H26.6ZM26.6 9.6V13.44H23.4001L23.4 9.6H26.6ZM25.96 5.12C26.3131 5.12 26.6 5.40684 26.6 5.76V8.32012H22.76C22.4063 8.32012 22.12 8.60633 22.12 8.96012V17.9201H18.28V5.12H25.96ZM13.8 8.32012V5.76C13.8 5.40684 14.0868 5.12 14.44 5.12H17V8.32H13.8V8.32012ZM13.8 13.44V9.6H17V13.44H13.8ZM17 14.72V17.92H14.44C14.0868 17.92 13.7999 17.6331 13.7999 17.28L13.8 14.72H17Z" fill="black"/>
<path d="M1 1.28L33 24.32" stroke="black" stroke-miterlimit="22.9256" stroke-linecap="round" stroke-linejoin="round"/>
</svg>
