<svg version="1.1" xmlns="http://www.w3.org/2000/svg" width="32" height="32" viewBox="0 0 32 32">
<path fill="#000000" d="M29.826,29.427c-0.303-5.719-5.441-8.084-5.441-8.084c-1.229-0.574-3.455-1.699-4.914-2.441
	c1.871-2.047,2.422-5.383,2.51-5.858c0.391-2.147,0.193-4.808,0.193-4.808c-0.357-5.17-5.576-5.25-6.124-5.244
	c-0.03,0-0.051,0-0.051,0s-0.017,0-0.041,0c-0.495-0.006-5.772,0.045-6.131,5.244c0,0-0.197,2.66,0.192,4.808
	c0.025,0.14,0.092,0.524,0.217,1.046c0.984,1.29,2.502,1.924,3.748,2.232c0.156-0.152,0.369-0.246,0.605-0.246h2.271
	c0.48,0,0.869,0.389,0.869,0.869s-0.389,0.871-0.869,0.871H14.59c-0.357,0-0.665-0.217-0.799-0.524
	c-0.93-0.226-2.004-0.619-2.965-1.297c0.383,0.995,0.93,2.062,1.703,2.907c-1.461,0.744-3.686,1.867-4.916,2.441
	c0,0-5.139,2.366-5.439,8.086c0,0-0.09,0.95,1.713,1.311C3.887,30.739,9.409,32,16,32c6.591,0,12.113-1.261,12.113-1.261
	C29.916,30.379,29.826,29.427,29.826,29.427z M8.061,14.897H8.61V8.455c0.002-0.017,0.006-0.031,0.006-0.048V7.455
	c0-1.694,0.523-3.069,1.556-4.086c2.136-2.103,5.784-2.072,5.845-2.063c0.045-0.002,3.662-0.056,5.806,2.045
	c1.041,1.018,1.568,2.397,1.568,4.104v1.007c0,0.01,0.002,0.02,0.002,0.028v6.407h0.549c1.352,0,2.443-1.094,2.443-2.443v-2.35
	c0-1.086-0.709-2.006-1.689-2.323V7.455c0-2.069-0.658-3.767-1.959-5.039C20.205-0.063,16.157,0,16.014,0
	c-0.17-0.002-4.221-0.053-6.754,2.433C7.965,3.703,7.309,5.394,7.309,7.455v0.323c-0.981,0.318-1.69,1.24-1.69,2.326v2.349
	C5.617,13.804,6.71,14.897,8.061,14.897z"/>
</svg>
