<svg version="1.1" xmlns="http://www.w3.org/2000/svg" width="36" height="36" viewBox="0 0 36 36">
<path fill="#000000" d="M10.942,34L28.276,2.003h-3.22L7.723,34H10.942z M20.644,24.524c0,6,3.449,9.334,7.586,9.334
	c4.14,0,7.771-3.334,7.771-9.811c0-5.569-2.806-9.235-7.54-9.235C23.909,14.809,20.644,18.714,20.644,24.524z M28.369,18.143
	c2.435,0,3.354,2.713,3.354,6.188c0,3.762-1.055,6.239-3.354,6.239c-2.253,0-3.496-2.666-3.449-6.192
	C24.92,20.902,26.069,18.143,28.369,18.143z M7.632,21.001c4.092,0,7.771-3.288,7.771-9.812C15.403,5.619,12.597,2,7.862,2
	C3.265,2,0,5.858,0,11.714C0.045,17.667,3.446,21.001,7.632,21.001z M7.771,5.287c2.435,0,3.355,2.763,3.355,6.188
	c0,3.76-1.103,6.238-3.355,6.238s-3.495-2.618-3.449-6.188C4.322,8.05,5.47,5.287,7.771,5.287z"/>
</svg>
