<svg version="1.1" xmlns="http://www.w3.org/2000/svg" width="32px" height="32px" viewBox="0 0 32 32">
<g>
	<path d="M8.105,5.097c-0.154-0.153-0.366-0.24-0.584-0.232c-0.217,0.005-0.424,0.1-0.57,0.261
		C2.158,10.401,4.765,21.81,5.039,22.938l-4.807,4.806C0.083,27.894,0,28.097,0,28.308s0.084,0.416,0.232,0.564l2.896,2.895
		C3.285,31.923,3.489,32,3.693,32c0.203,0,0.408-0.077,0.564-0.233l4.803-4.803c2.34,0.6,5.266,0.959,7.848,0.959
		c3.104,0,7.35-0.5,9.965-2.873c0.162-0.146,0.258-0.353,0.264-0.57c0.006-0.219-0.08-0.43-0.234-0.584L8.105,5.097z"/>
	<path d="M15.046,9.847c0.156,0.156,0.36,0.234,0.564,0.234c0.203,0,0.408-0.078,0.564-0.234l5.956-5.955
		c0.424-0.422,0.654-0.982,0.654-1.58c0-0.596-0.232-1.156-0.654-1.578s-0.98-0.654-1.578-0.654s-1.156,0.232-1.578,0.654
		l-5.958,5.955c-0.313,0.313-0.313,0.816,0,1.129L15.046,9.847z"/>
	<path d="M31.348,9.95c-0.422-0.422-0.982-0.654-1.58-0.654c-0.596,0-1.156,0.232-1.578,0.654l-5.957,5.956
		c-0.148,0.149-0.234,0.353-0.234,0.563s0.086,0.414,0.234,0.564l2.029,2.027c0.156,0.156,0.359,0.234,0.564,0.234
		c0.203,0,0.408-0.078,0.564-0.234l5.957-5.955C32.219,12.235,32.219,10.819,31.348,9.95z"/>
</g>
</svg>
