<?xml version="1.0" encoding="utf-8"?>
<!-- Generator: Adobe Illustrator 15.1.0, SVG Export Plug-In . SVG Version: 6.00 Build 0)  -->
<!DOCTYPE svg PUBLIC "-//W3C//DTD SVG 1.1//EN" "http://www.w3.org/Graphics/SVG/1.1/DTD/svg11.dtd">
<svg version="1.1" xmlns="http://www.w3.org/2000/svg" xmlns:xlink="http://www.w3.org/1999/xlink" x="0px" y="0px"
	 width="32px" height="32px" viewBox="0 0 32 32">
<g>
	<path d="M24.904,15.986c0-4.948-4.01-8.958-8.959-8.958c-4.947,0-8.958,4.011-8.958,8.958v8.932h17.917V15.986z M15.9,12.688
		c-1.818,0-3.298,1.48-3.298,3.298c0,0.445-0.36,0.807-0.805,0.807c-0.445,0-0.805-0.361-0.805-0.807
		c0-2.707,2.202-4.907,4.908-4.907c0.443,0,0.806,0.36,0.806,0.805C16.707,12.327,16.346,12.688,15.9,12.688z"/>
	<path d="M26.732,26.527H5.348c-1.448,0-2.652,1.674-2.652,3.121V32h26.609v-2.352C29.305,28.201,28.182,26.527,26.732,26.527z"/>
	<path d="M15.945,5.365c0.445,0,0.806-0.36,0.806-0.805V0.805C16.751,0.36,16.391,0,15.945,0c-0.443,0-0.805,0.36-0.805,0.805V4.56
		C15.143,5.004,15.502,5.365,15.945,5.365z"/>
	<path d="M9.637,6.485c0.149,0.258,0.42,0.402,0.698,0.402c0.136,0,0.275-0.035,0.402-0.108c0.385-0.222,0.517-0.714,0.294-1.099
		L9.154,2.428c-0.222-0.385-0.715-0.516-1.1-0.294C7.669,2.356,7.537,2.849,7.759,3.233L9.637,6.485z"/>
	<path d="M2.549,9.045l3.252,1.878c0.126,0.073,0.265,0.107,0.401,0.107c0.278,0,0.549-0.144,0.697-0.402
		c0.223-0.385,0.09-0.877-0.294-1.099L3.354,7.651C2.969,7.43,2.477,7.561,2.255,7.946C2.033,8.331,2.165,8.823,2.549,9.045z"/>
	<path d="M21.264,6.78c0.127,0.073,0.266,0.108,0.401,0.108c0.278,0,0.549-0.144,0.698-0.402l1.878-3.252
		c0.223-0.384,0.091-0.876-0.296-1.099c-0.385-0.223-0.877-0.091-1.098,0.294l-1.88,3.252C20.746,6.065,20.879,6.558,21.264,6.78z"
		/>
	<path d="M25.797,11.031c0.137,0,0.275-0.035,0.402-0.107l3.251-1.878c0.385-0.222,0.517-0.714,0.295-1.099
		c-0.224-0.385-0.714-0.517-1.101-0.295l-3.25,1.878c-0.387,0.222-0.519,0.714-0.297,1.099
		C25.248,10.887,25.52,11.031,25.797,11.031z"/>
</g>
</svg>
