<svg version="1.1" xmlns="http://www.w3.org/2000/svg" width="32px" height="32px" viewBox="0 0 32 32">
<polygon points="4.396,24.596 1.002,21.202 1.002,32 8.389,32 8.389,20.603"/>
<polygon points="16.287,21.402 12.308,17.79 12.308,32 19.692,32 19.692,18.353"/>
<polygon points="27.886,10.16 23.612,14.435 23.612,32 30.998,32 30.998,13.096"/>
<path d="M31,9.263c0,0.248-0.116,0.422-0.347,0.522c-0.229,0.1-0.439,0.057-0.628-0.132l-2.14-2.141L16.688,18.708
			c-0.117,0.117-0.254,0.178-0.408,0.178c-0.153,0-0.289-0.061-0.406-0.178l-4.121-4.121l-7.358,7.359L1,18.55L11.348,8.201
			c0.118-0.118,0.254-0.176,0.408-0.176c0.151,0,0.288,0.059,0.406,0.176l4.121,4.121l8.208-8.206l-2.141-2.141
			c-0.188-0.189-0.232-0.399-0.133-0.628c0.099-0.229,0.274-0.345,0.52-0.345H31"/>
</svg>
