<?xml version="1.0" encoding="utf-8"?>
<svg version="1.1" xmlns="http://www.w3.org/2000/svg" xmlns:xlink="http://www.w3.org/1999/xlink"
	 width="32" height="32" viewBox="0 0 32 32">
<g>
	<path fill="#000000" d="M15.273,15.271c0,0.399,0.326,0.725,0.727,0.725s0.729-0.326,0.729-0.725c0-0.853,0.303-1.681,0.851-2.331
		c1.221-1.447,2.136-3.017,2.715-4.664c0.079-0.222,0.046-0.469-0.092-0.662c-0.138-0.193-0.356-0.308-0.595-0.308h-7.216
		c-0.237,0-0.459,0.115-0.595,0.308c-0.136,0.193-0.169,0.439-0.092,0.662c0.58,1.648,1.495,3.217,2.716,4.664
		C14.97,13.591,15.273,14.419,15.273,15.271z"/>
	<path fill="#000000" d="M16.729,18.186c0-0.402-0.329-0.729-0.729-0.729s-0.727,0.328-0.727,0.729c0,1.049-0.627,2.09-1.766,2.93
		c-2.433,1.797-4.255,3.75-5.413,5.801c-0.128,0.227-0.126,0.5,0.006,0.723c0.129,0.227,0.369,0.359,0.628,0.359h14.545
		c0.26,0,0.496-0.135,0.627-0.359c0.131-0.223,0.133-0.496,0.008-0.723c-1.16-2.053-2.98-4.004-5.413-5.801
		C17.354,20.273,16.729,19.234,16.729,18.186z"/>
	<path fill="#000000" d="M28.727,29.09h-0.436C27.792,23.432,24.479,19.086,21.9,16c2.576-3.086,5.892-7.431,6.393-13.091h0.434
		c0.803,0,1.455-0.651,1.455-1.455c0-0.804-0.65-1.454-1.455-1.454H3.273C2.469,0,1.818,0.65,1.818,1.455
		c0,0.802,0.65,1.455,1.455,1.455h0.435C4.208,8.57,7.521,12.916,10.099,16c-2.576,3.087-5.89,7.431-6.391,13.089H3.273
		c-0.804,0-1.455,0.65-1.455,1.455S2.469,32,3.273,32h1.818h21.817h1.818c0.805,0,1.455-0.65,1.455-1.457
		C30.184,29.738,29.531,29.09,28.727,29.09z M6.624,29.09c0.546-5.111,3.871-9.051,6.355-11.992l0.132-0.158
		c0.458-0.54,0.458-1.333,0-1.875l-0.132-0.155c-2.482-2.945-5.81-6.882-6.356-11.996h18.752c-0.546,5.114-3.872,9.051-6.355,11.996
		l-0.131,0.155c-0.459,0.541-0.459,1.334,0,1.875l0.131,0.158c2.484,2.941,5.811,6.881,6.355,11.992H6.624z"/>
</g>
</svg>
