<svg class="svg-icon" version="1.1" xmlns="http://www.w3.org/2000/svg" width="32" height="32" viewBox="0 0 32 32">
<g>
	<path class="svg-path" d="M2.533,17.9c-3.958,8.254,11.078,8.387,13.218,13.598C15.889,31.832,15.945,32,16.002,32
		s0.111-0.168,0.25-0.502c2.141-5.213,17.176-5.344,13.218-13.598c-3.543-7.39-0.407-11.616,0.745-12.826
		c0.202-0.212,0.223-0.54,0.021-0.754l-3.563-3.829c-0.128-0.138-0.324-0.208-0.518-0.208c-0.109,0-0.219,0.023-0.313,0.068
		c-1.272,0.621-2.635,0.84-3.928,0.84c-2.367,0-4.502-0.737-5.429-1.11C16.352,0.028,16.175,0,16,0
		c-0.176,0-0.352,0.028-0.488,0.082c-0.927,0.373-3.061,1.111-5.428,1.111c-1.293,0-2.654-0.221-3.928-0.84
		C6.063,0.307,5.953,0.285,5.844,0.285c-0.193,0-0.39,0.071-0.518,0.208L1.763,4.322c-0.2,0.214-0.18,0.542,0.023,0.754
		C2.939,6.285,6.077,10.512,2.533,17.9z M6.201,2.671c1.188,0.429,2.49,0.646,3.885,0.646c2.463,0,4.665-0.67,5.916-1.146
		c1.251,0.477,3.453,1.146,5.916,1.146c1.396,0,2.697-0.217,3.885-0.646l1.945,2.089c-1.568,2.258-3.576,7-0.191,14.058
		c0.664,1.387,0.424,2.033,0.346,2.248c-0.557,1.51-3.397,2.77-5.904,3.879c-2.186,0.969-4.42,1.957-5.995,3.389
		c-1.575-1.432-3.812-2.42-5.995-3.389c-2.507-1.109-5.348-2.369-5.904-3.879c-0.08-0.215-0.318-0.861,0.346-2.248
		C7.834,11.76,5.826,7.018,4.257,4.76L6.201,2.671z"/>
	<path class="svg-path" d="M7.32,16.543c-2.551,5.697,7.142,5.787,8.521,9.385c0.177,0.463,0.146,0.463,0.323,0
		c1.38-3.598,11.072-3.688,8.521-9.385c-2.285-5.101-0.264-8.019,0.479-8.855c0.131-0.146,0.145-0.373,0.016-0.521l-2.298-2.644
		c-0.129-0.147-0.364-0.185-0.534-0.096c-2.324,1.211-5.107,0.211-6.031-0.187c-0.176-0.076-0.453-0.076-0.629,0
		c-0.922,0.397-3.707,1.397-6.031,0.187C9.486,4.339,9.25,4.376,9.122,4.524L6.824,7.167C6.695,7.315,6.709,7.542,6.839,7.688
		C7.583,8.524,9.604,11.442,7.32,16.543z"/>
</g>
</svg>
