<?xml version="1.0" encoding="utf-8"?>
<!DOCTYPE svg PUBLIC "-//W3C//DTD SVG 1.1//EN" "http://www.w3.org/Graphics/SVG/1.1/DTD/svg11.dtd">
<svg version="1.1" xmlns="http://www.w3.org/2000/svg" xmlns:xlink="http://www.w3.org/1999/xlink" x="0px" y="0px"
	 width="32px" height="32px" viewBox="0 0 32 32">
<g>
	<path d="M30.731,13.213c-0.845-1.977-1.981-3.678-3.409-5.106c-1.43-1.429-3.132-2.565-5.107-3.411
		C20.238,3.85,18.166,3.428,16,3.428c-2.168,0-4.238,0.423-6.215,1.268C7.81,5.541,6.107,6.678,4.679,8.106
		s-2.565,3.132-3.411,5.106C0.422,15.189,0,17.261,0,19.427c0,3.118,0.838,5.993,2.518,8.627c0.227,0.344,0.548,0.519,0.964,0.519
		h25.036c0.417,0,0.738-0.175,0.965-0.519C31.162,25.408,32,22.533,32,19.427C31.998,17.261,31.576,15.189,30.731,13.213z
		 M14.383,6.383c0.447-0.445,0.984-0.668,1.615-0.668s1.17,0.223,1.617,0.668c0.445,0.447,0.67,0.986,0.67,1.617
		s-0.225,1.168-0.67,1.615c-0.447,0.446-0.986,0.67-1.617,0.67s-1.17-0.224-1.615-0.67c-0.446-0.447-0.67-0.984-0.67-1.615
		S13.937,6.83,14.383,6.383z M6.187,21.045c-0.446,0.445-0.985,0.67-1.616,0.67s-1.169-0.225-1.615-0.67
		c-0.447-0.447-0.67-0.984-0.67-1.617c0-0.631,0.223-1.168,0.67-1.615c0.445-0.447,0.984-0.67,1.615-0.67s1.17,0.223,1.616,0.67
		s0.67,0.984,0.67,1.615C6.856,20.06,6.633,20.597,6.187,21.045z M9.615,13.043c-0.447,0.447-0.986,0.67-1.617,0.67
		s-1.17-0.223-1.615-0.67c-0.446-0.445-0.67-0.984-0.67-1.615s0.224-1.17,0.67-1.616C6.83,9.365,7.367,9.143,7.998,9.143
		s1.17,0.223,1.617,0.669c0.445,0.447,0.668,0.985,0.668,1.616S10.062,12.598,9.615,13.043z M19.731,13.195l-1.804,6.821
		c0.595,0.403,1.023,0.946,1.285,1.625c0.262,0.681,0.298,1.375,0.106,2.09c-0.237,0.916-0.768,1.613-1.589,2.088
		c-0.822,0.478-1.691,0.597-2.607,0.357c-0.918-0.236-1.613-0.769-2.09-1.589c-0.476-0.821-0.595-1.69-0.356-2.606
		c0.19-0.715,0.565-1.301,1.125-1.76c0.559-0.457,1.196-0.718,1.909-0.774l1.805-6.822c0.083-0.311,0.262-0.545,0.536-0.707
		c0.272-0.16,0.559-0.198,0.856-0.115c0.297,0.083,0.526,0.259,0.688,0.525C19.758,12.598,19.803,12.887,19.731,13.195z
		 M22.383,13.043c-0.446-0.445-0.67-0.984-0.67-1.615s0.224-1.17,0.67-1.616c0.445-0.446,0.984-0.669,1.615-0.669
		s1.17,0.223,1.617,0.669c0.445,0.447,0.67,0.985,0.67,1.616s-0.225,1.169-0.67,1.615c-0.447,0.447-0.986,0.67-1.617,0.67
		S22.828,13.49,22.383,13.043z M29.043,21.045c-0.446,0.445-0.984,0.67-1.615,0.67s-1.17-0.225-1.616-0.67
		c-0.446-0.447-0.67-0.984-0.67-1.617c0-0.631,0.224-1.168,0.67-1.615s0.985-0.67,1.616-0.67s1.169,0.223,1.615,0.67
		c0.447,0.447,0.67,0.984,0.67,1.615C29.713,20.06,29.49,20.597,29.043,21.045z"/>
</g>
</svg>
