<svg version="1.1" xmlns="http://www.w3.org/2000/svg" width="36" height="36" viewBox="0 0 36 36">
<path d="M16.753,1.592c0.235-0.476,0.721-0.777,1.25-0.777c0.528,0,1.013,0.301,1.248,0.777l4.482,9.083
	c0.201,0.411,0.596,0.696,1.05,0.762l10.022,1.456c0.526,0.076,0.961,0.445,1.125,0.949s0.027,1.059-0.354,1.428l-7.252,7.07
	c-0.328,0.32-0.479,0.781-0.4,1.233l1.711,9.983c0.088,0.523-0.125,1.052-0.556,1.363c-0.43,0.311-0.997,0.354-1.468,0.106
	l-8.967-4.716c-0.404-0.213-0.89-0.213-1.294,0l-8.966,4.715c-0.469,0.246-1.038,0.205-1.467-0.105
	c-0.43-0.312-0.644-0.84-0.555-1.363l1.712-9.983c0.078-0.452-0.073-0.913-0.401-1.233l-7.252-7.07
	c-0.38-0.37-0.517-0.924-0.353-1.428s0.599-0.873,1.125-0.949l10.024-1.456c0.454-0.066,0.847-0.351,1.05-0.762L16.753,1.592z"/>
</svg>
