<svg version="1.1" xmlns="http://www.w3.org/2000/svg" width="32" height="32px" viewBox="0 0 32 32">
    <path d="M25.135,4.072v1.364H19.85V4.072H25.135z M22.918,7.044H19.85v1.364h3.068V7.044z M19.85,11.38h5.285v-1.364H19.85V11.38z
	 M22.918,12.989H19.85v1.364h3.068V12.989z M19.85,17.325h5.285v-1.364H19.85V17.325z M20.674,25.096
	c0,3.807-3.098,6.904-6.904,6.904c-3.807,0-6.904-3.098-6.904-6.904c0-2.467,1.296-4.709,3.41-5.949V3.495
	C10.275,1.568,11.843,0,13.77,0s3.494,1.568,3.494,3.495v15.652C19.378,20.386,20.674,22.629,20.674,25.096z M19.311,25.096
	c0-2.094-1.164-3.985-3.037-4.937L15.9,19.97V3.495c0-1.175-0.956-2.131-2.131-2.131s-2.131,0.956-2.131,2.131V19.97l-0.373,0.189
	c-1.873,0.952-3.037,2.845-3.037,4.937c0,3.055,2.486,5.541,5.541,5.541S19.311,28.15,19.311,25.096z M18.174,25.096
	c0,2.428-1.976,4.404-4.404,4.404c-2.428,0-4.404-1.977-4.404-4.404c0-1.99,1.345-3.738,3.271-4.25l0.253-0.067V5.62h1.761v15.157
	l0.253,0.068C16.83,21.357,18.174,23.106,18.174,25.096z M13.988,22.16c-0.105-0.467-0.574-0.773-1.052-0.664
	c-1.669,0.378-2.835,1.838-2.835,3.551c0,0.484,0.395,0.88,0.88,0.88s0.88-0.396,0.88-0.88c0-0.871,0.615-1.643,1.464-1.834
	C13.795,23.104,14.094,22.633,13.988,22.16z"/>
</svg>
