<svg width="32" height="32" viewBox="0 0 32 32" fill="none" xmlns="http://www.w3.org/2000/svg">
<g clip-path="url(#clip0)">
<path d="M15.9932 22.6437C14.4637 22.6437 13.2195 23.8839 13.2195 25.4075C13.2195 26.9316 14.4637 28.1723 15.9932 28.1723C17.5231 28.1723 18.7673 26.9316 18.7673 25.4075C18.7673 23.8839 17.5228 22.6437 15.9932 22.6437Z" fill="#CCCCCC"/>
<path d="M22.7605 18.8779C20.9547 17.0731 18.551 16.0788 15.9932 16.0788C13.4451 16.0788 11.048 17.0666 9.24271 18.86C8.51358 19.5856 8.51232 20.7678 9.23968 21.4946C9.59301 21.8485 10.0635 22.0428 10.5642 22.0428C11.0626 22.0428 11.5313 21.8495 11.8841 21.4987C12.9827 20.4069 14.442 19.8054 15.9932 19.8054C17.5501 19.8054 19.0134 20.4106 20.1128 21.509C20.4661 21.8618 20.9363 22.0567 21.4365 22.0567C21.9355 22.0567 22.4039 21.8633 22.757 21.5125C23.4871 20.7869 23.4884 19.6053 22.7605 18.8779Z" fill="#CCCCCC"/>
<path d="M31.4538 10.2134C27.3253 6.09506 21.8343 3.82767 15.9932 3.82767C10.1599 3.82767 4.67436 6.08976 0.547163 10.1983C-0.181967 10.9239 -0.182472 12.106 0.546153 12.8329C0.899235 13.185 1.36892 13.3785 1.86863 13.3785C2.36809 13.3785 2.83727 13.1857 3.19035 12.8339C6.61138 9.42877 11.158 7.55307 15.9932 7.55307C20.8353 7.55307 25.3865 9.43255 28.8083 12.8468C29.1614 13.1991 29.6318 13.3934 30.1313 13.3934C30.6305 13.3934 31.0997 13.1996 31.4525 12.8483C32.1819 12.1221 32.1827 10.9395 31.4538 10.2134Z" fill="#CCCCCC"/>
<path d="M26.997 14.6543C24.0583 11.7224 20.1504 10.1079 15.9932 10.1079C11.8435 10.1079 7.94144 11.7173 5.00524 14.6389C4.65165 14.9904 4.45706 15.4581 4.45631 15.9561C4.45631 16.4535 4.65014 16.9217 5.00322 17.2737C5.3563 17.6261 5.82623 17.8204 6.32595 17.8204C6.82491 17.8204 7.29408 17.6266 7.64767 17.2758C9.87822 15.0566 12.8422 13.834 15.9932 13.834C19.1507 13.834 22.1187 15.0609 24.3508 17.2876C24.7044 17.6405 25.174 17.8348 25.674 17.8348C26.1732 17.8348 26.6426 17.641 26.9952 17.2896C27.3483 16.9381 27.5434 16.4704 27.5436 15.9725C27.5442 15.4745 27.3498 15.0068 26.997 14.6543Z" fill="#CCCCCC"/>
</g>
<defs>
<clipPath id="clip0">
<rect width="32" height="32" fill="white"/>
</clipPath>
</defs>
</svg>
