<svg class="svg" version="1.1" xmlns="http://www.w3.org/2000/svg" width="24" height="36" viewBox="0 0 24 36">
<path class="svg-path svg-pin" d="M12,0C5.366,0,0,5.634,0,12.6C0,22.05,12,36,12,36s12-13.95,12-23.4C24,5.634,18.634,0,12,0z"/>
<path class="svg-bgr" fill="#FFFFFF" d="M12.001,21.316c-4.969,0-9.001-4.031-9.001-9s4.032-9,9.001-9c4.968,0,8.999,4.032,8.999,9
	S16.969,21.316,12.001,21.316z"/>
<% if(type == 'fuel') {%>
<path class="svg-path svg-path-fuel" d="M18.084,8.223l-1.499-0.836c-0.37-0.207-0.821-0.04-1.007,0.374c-0.185,0.414-0.035,0.916,0.336,1.122l0.344,0.192
	c0.034,0.571,0.321,1.063,0.741,1.335v4.833c0,0.23-0.168,0.418-0.375,0.418s-0.375-0.188-0.375-0.418v-3.345
	c0-1.384-1.009-2.51-2.25-2.51v-2.09c0-0.923-0.672-1.674-1.499-1.674H8.75c-0.827,0-1.5,0.75-1.5,1.674v9.271l-0.53,0.592
	C6.579,17.318,6.5,17.53,6.5,17.752v0.418c0,0.461,0.336,0.836,0.75,0.836h6.749c0.414,0,0.751-0.375,0.751-0.836v-0.418
	c0-0.222-0.079-0.435-0.221-0.591l-0.53-0.592v-5.507c0.414,0,0.751,0.374,0.751,0.836v3.345c0,1.153,0.842,2.091,1.874,2.091
	c0.981,0,1.782-0.85,1.859-1.922c0.011-0.055,0.017-0.111,0.017-0.169V8.971C18.5,8.655,18.338,8.364,18.084,8.223z M12.5,10.644
	H8.75V8.136h3.75V10.644z"/>
<% } else if(type == 'engine') { %>
	<path class="svg-path svg-path-engine" d="M19.254,10.738h-0.328c-0.137,0-0.247,0.111-0.247,0.247v4.279c0,0.135,0.11,0.246,0.247,0.246h0.328
	c0.136,0,0.246-0.11,0.246-0.246v-4.279C19.5,10.849,19.39,10.738,19.254,10.738z M4.747,10.53c-0.136,0-0.247,0.11-0.247,0.247
	v4.697c0,0.136,0.111,0.247,0.247,0.247h0.669c0.136,0,0.247-0.111,0.247-0.247v-4.696c0-0.135-0.111-0.246-0.247-0.246H4.747V10.53
	z M14.109,16.472c0.55-0.213,1.096-0.433,1.644-0.646c0.049-0.019,0.105-0.025,0.158-0.027c0.405-0.002,0.812-0.002,1.216-0.002
	c0.42,0,0.689-0.27,0.689-0.695v-1.389c0-0.1,0.081-0.178,0.179-0.178l0.176-0.005c0.139,0,0.146-0.054,0.151-0.15l0.003-0.807
	c0-0.081-0.064-0.145-0.146-0.145h-0.188c-0.1,0-0.18-0.081-0.18-0.181l0.006-1.685c0.005-0.25-0.097-0.421-0.288-0.559
	c-0.328-0.237-1.296-0.924-1.454-1.025c-0.108-0.071-0.227-0.099-0.359-0.098L14.048,8.88c-0.143,0-0.258-0.115-0.258-0.257V8.571
	c0-0.144,0.117-0.261,0.261-0.261h1.513c0.144,0,0.261-0.117,0.261-0.26V7.748c0-0.144-0.117-0.26-0.261-0.26h-5.022
	c-0.144,0-0.261,0.117-0.261,0.26V8.05c0,0.144,0.117,0.26,0.261,0.26h1.637c0.144,0,0.261,0.117,0.261,0.261v0.06
	c0,0.142-0.115,0.259-0.26,0.257l-1.653-0.006c-0.315-0.009-0.575,0.098-0.814,0.271C9.361,9.408,9.017,9.67,8.673,9.932
	c-0.087,0.066-0.196,0.103-0.305,0.101c-0.331-0.003-0.663-0.003-0.995,0c-0.412,0.003-0.678,0.269-0.682,0.682l0.005,1.151
	c0,0.098-0.079,0.178-0.178,0.178H6.363c-0.188,0-0.34,0.152-0.34,0.34v1.824c0,0.188,0.152,0.339,0.34,0.339h0.149
	c0.098,0,0.178,0.079,0.178,0.178c0,0.262-0.001,0.75,0,1.033c0,0.262-0.004,0.754,0.476,0.754h6.733
	C13.971,16.513,14.045,16.499,14.109,16.472z"/>
    <% } else if(type == 'accesscard') { %>
    <rect x="5.5" y="7.5" width="13" height="10" rx="0.5" fill="#FFFFFF" stroke="#009000"/>
    <rect x="7" y="9" width="4" height="1" fill="#009000"/>
    <rect x="7" y="12" width="4" height="1" fill="#009000"/>
    <rect x="7" y="15" width="4" height="1" fill="#009000"/>
    <rect x="12" y="13" width="5" height="5" rx="1" fill="#009000"/>
    <circle cx="14.5" cy="10.5" r="1.5" fill="#009000"/>
<% } else if(type == 'switch') { %>
	<path class="svg-path svg-path-switch" d="M5.653,8.992l4.039-4.039l4.039,4.039h-2.885v4.615H8.538V8.992H5.653z M18.347,15.915l-4.039,4.039l-4.039-4.039h2.885
	v-4.615h2.309v4.615H18.347z"/>
<% } %>
</svg>
