<?xml version="1.0" encoding="utf-8"?>
<!-- Generator: Adobe Illustrator 16.0.0, SVG Export Plug-In . SVG Version: 6.00 Build 0)  -->
<!DOCTYPE svg PUBLIC "-//W3C//DTD SVG 1.1//EN" "http://www.w3.org/Graphics/SVG/1.1/DTD/svg11.dtd">
<svg version="1.1" id="Layer_1" xmlns="http://www.w3.org/2000/svg" xmlns:xlink="http://www.w3.org/1999/xlink" x="0px" y="0px"
	 width="96px" height="96px" viewBox="0 0 96 96" enable-background="new 0 0 96 96" xml:space="preserve">
<g>
	<path d="M31.503,27.63C14.501,29.324,1.226,43.671,1.226,61.119c0,18.588,15.066,33.655,33.656,33.655
		c17.447,0,31.795-13.275,33.488-30.276H31.503V27.63z"/>
	<path d="M68.37,57.739C66.786,41.85,54.149,29.215,38.261,27.63v30.109H68.37z"/>
	<path d="M94.774,1.226H31.503V27.63c1.111-0.11,2.238-0.169,3.379-0.169s2.268,0.059,3.379,0.169V7.983h49.756v49.756H68.37
		c0.111,1.112,0.17,2.239,0.17,3.38c0,1.14-0.059,2.268-0.17,3.379h26.404V1.226z"/>
</g>
</svg>
