<svg class="svg-icon" version="1.1" xmlns="http://www.w3.org/2000/svg" xmlns:xlink="http://www.w3.org/1999/xlink"
     width="32" height="32" viewBox="0 0 32 32">
    <path class="svg-path" d="M28.5,29.57c0,1.342-1.111,2.43-2.486,2.43H5.986C4.613,32,3.5,30.912,3.5,29.57V17.719
	c0-1.342,1.113-2.429,2.486-2.429h20.027c1.375,0,2.486,1.087,2.486,2.429V29.57z M12.831,14.279V7.415
	c0-1.707,1.421-3.097,3.17-3.097c1.747,0,3.17,1.39,3.17,3.097v6.864h4.42V7.415C23.59,3.326,20.188,0,16,0
	c-4.186,0-7.59,3.327-7.59,7.415v6.864H12.831z"/>
</svg>