<svg class="svg-icon" version="1.1" xmlns="http://www.w3.org/2000/svg" xmlns:xlink="http://www.w3.org/1999/xlink"
     width="32" height="32" viewBox="0 0 32 32">
    <path class="svg-path" d="M25.313,29.57c0,1.342-1.084,2.43-2.418,2.43H3.418C2.083,32,1,30.912,1,29.57V17.719
	c0-1.341,1.083-2.429,2.418-2.429h19.475c1.336,0,2.418,1.087,2.418,2.429V29.57H25.313z M20.535,14.279V7.415
	c0-1.707,1.384-3.097,3.083-3.097c1.7,0,3.084,1.39,3.084,3.097v6.864H31V7.415C31,3.326,27.688,0,23.618,0
	c-4.068,0-7.38,3.327-7.38,7.415v6.864H20.535z"/>
</svg>