<svg class="svg-icon" version="1.1" xmlns="http://www.w3.org/2000/svg" xmlns:xlink="http://www.w3.org/1999/xlink"
     width="32" height="32" viewBox="0 0 32 32">
    <path class="svg-path" d="M18.284,26.847v-3.39c0-0.167-0.058-0.306-0.171-0.419c-0.111-0.113-0.245-0.17-0.399-0.17h-3.426
	c-0.154,0-0.289,0.057-0.401,0.17c-0.111,0.113-0.169,0.252-0.169,0.419v3.39c0,0.166,0.058,0.306,0.169,0.418
	c0.112,0.113,0.247,0.17,0.401,0.17h3.426c0.154,0,0.288-0.057,0.399-0.17C18.229,27.151,18.284,27.013,18.284,26.847z
	 M18.248,20.175l0.32-8.188c0-0.143-0.06-0.256-0.178-0.34c-0.154-0.131-0.299-0.195-0.429-0.195h-3.925
	c-0.131,0-0.273,0.064-0.428,0.195c-0.119,0.084-0.18,0.209-0.18,0.375l0.305,8.152c0,0.118,0.059,0.217,0.178,0.293
	c0.119,0.077,0.261,0.117,0.428,0.117h3.301c0.166,0,0.307-0.04,0.418-0.117C18.174,20.392,18.236,20.294,18.248,20.175z
	 M17.998,3.515L31.695,28.63c0.418,0.748,0.404,1.497-0.034,2.246c-0.202,0.346-0.479,0.619-0.829,0.821
	C30.48,31.899,30.104,32,29.699,32H2.302c-0.406,0-0.783-0.101-1.134-0.303s-0.627-0.476-0.829-0.821
	c-0.439-0.749-0.451-1.498-0.035-2.246L14.001,3.515c0.202-0.367,0.482-0.66,0.838-0.873c0.357-0.215,0.743-0.32,1.16-0.32
	c0.416,0,0.805,0.105,1.16,0.32C17.518,2.854,17.796,3.147,17.998,3.515L17.998,3.515z"/>
</svg>