<?xml version="1.0" encoding="utf-8"?>
<!-- Generator: Adobe Illustrator 15.1.0, SVG Export Plug-In . SVG Version: 6.00 Build 0)  -->

<svg version="1.1" xmlns="http://www.w3.org/2000/svg" xmlns:xlink="http://www.w3.org/1999/xlink"
	 width="32" height="32" viewBox="-2 -2 32 32" enable-background="new -2 -2 32 32" xml:space="preserve">
<path fill="#646464" d="M12.222,15.074l10.111,10.111c-1.309,1.332-2.836,2.369-4.584,3.111c-1.748,0.74-3.59,1.111-5.527,1.111
	c-2.581,0-4.961-0.636-7.139-1.908c-2.179-1.271-3.904-2.995-5.177-5.176C-1.365,20.146-2.001,17.767-2,15.187
	c0-2.58,0.637-4.959,1.906-7.139c1.271-2.18,2.996-3.905,5.177-5.176c2.18-1.271,4.56-1.907,7.139-1.907v14.111V15.074z
	 M15.685,15.186H30c0,1.938-0.371,3.78-1.111,5.527c-0.742,1.748-1.779,3.276-3.111,4.584L15.685,15.186z M28.814,12.815H14.592
	V-1.408c2.581,0,4.961,0.636,7.139,1.907c2.179,1.271,3.903,2.997,5.177,5.176c1.271,2.179,1.907,4.559,1.906,7.139L28.814,12.815z"
	/>
</svg>
