<?xml version="1.0" encoding="utf-8"?>
<!-- Generator: Adobe Illustrator 15.1.0, SVG Export Plug-In . SVG Version: 6.00 Build 0)  -->

<svg version="1.1" xmlns="http://www.w3.org/2000/svg" xmlns:xlink="http://www.w3.org/1999/xlink"
	 width="32" height="32" viewBox="-2 -2 32 32" enable-background="new -2 -2 32 32" xml:space="preserve">
<path fill="#646464" d="M14.285,28.286C14.285,28.096,14.19,28,14,28c-0.703,0-1.308-0.252-1.813-0.759
	c-0.507-0.507-0.759-1.109-0.759-1.813c0-0.189-0.096-0.286-0.286-0.286s-0.286,0.097-0.286,0.286c0,0.869,0.308,1.61,0.921,2.223
	s1.354,0.92,2.223,0.92C14.19,28.571,14.285,28.476,14.285,28.286z M28.857,23.143c0,0.618-0.226,1.154-0.679,1.607
	s-0.989,0.679-1.607,0.679h-8c0,1.261-0.446,2.339-1.339,3.232C16.339,29.554,15.261,30,14,30c-1.262,0-2.34-0.446-3.232-1.339
	c-0.893-0.894-1.339-1.972-1.339-3.232h-8c-0.619,0-1.154-0.226-1.607-0.679c-0.452-0.453-0.679-0.989-0.679-1.607
	c0.595-0.5,1.179-0.989,1.625-1.571c0.984-1.282,2.211-3.083,2.849-4.964C4.5,14,4.856,9.94,4.856,8.286
	c0-1.81,0.697-3.491,2.09-5.044c1.393-1.554,3.22-2.498,5.482-2.831C11.953-0.656,12.734-2,14-2c1.344,0,2.016,1.344,1.571,2.41
	c2.263,0.333,4.09,1.277,5.482,2.831c1.393,1.553,1.959,3.24,2.089,5.044c0.209,2.911,0.441,5.714,1.241,8.322
	c0.549,1.79,2.116,4.351,2.849,4.964C27.795,22.042,28.261,22.643,28.857,23.143z"/>
</svg>
