<?xml version="1.0" encoding="utf-8"?>
<!-- Generator: Adobe Illustrator 15.1.0, SVG Export Plug-In . SVG Version: 6.00 Build 0)  -->

<svg version="1.1" xmlns="http://www.w3.org/2000/svg" xmlns:xlink="http://www.w3.org/1999/xlink"
	 width="32" height="32" viewBox="0 0 32 32">
<path fill="#646464" d="M16.266,10.559C9.812,14.032,5.881,15.331,0,16.372l3.404,3.978c3.44-0.494,5.565-1.243,8.485-2.274
	c-1.85,1.97-2.937,2.843-6.557,4.598l2.515,3.266c2.514-0.78,3.426-1.014,8.358-3.875c-2.969,4.035-5.152,5.07-6.458,5.896L13.48,32
	c4.034-2.01,9.547-9.099,11.622-13.895l-8.839-7.546L16.266,10.559z M19.548,11.204l8.553-10.431
	c2.488-2.199,4.773,0.821,3.568,2.565l-8.304,11.176L19.548,11.204z"/>
</svg>
