<?xml version="1.0" encoding="utf-8"?>

<svg version="1.1" xmlns="http://www.w3.org/2000/svg" xmlns:xlink="http://www.w3.org/1999/xlink"
	 width="32" height="32" viewBox="0 0 32 32">
<path fill="#646464" d="M30,13l-6,4c0-1.214-0.553-2.288-1.406-3.021C24.627,12.753,26,10.546,26,8c0-3.866-3.135-7-7-7
	c-3.865,0-7,3.134-7,7c0,1.961,0.811,3.729,2.111,5h-3.668C11.4,11.938,12,10.544,12,9c0-3.314-2.686-6-6-6S0,5.686,0,9
	c0,1.809,0.816,3.41,2.082,4.51C0.848,14.191,0,15.49,0,17v8c0,2.209,1.791,4,4,4h16c2.209,0,4-1.791,4-4l6,4c1.105,0,2-0.895,2-2
	V15C32,13.895,31.105,13,30,13z M6,13c-2.209,0-4-1.791-4-4s1.791-4,4-4s4,1.791,4,4S8.209,13,6,13z M19,13.01
	c-2.768,0-5.012-2.244-5.012-5.011c0-2.769,2.244-5.011,5.012-5.011c2.768,0,5.012,2.242,5.012,5.011S21.768,13.01,19,13.01z"/>
</svg>
