<?xml version="1.0" encoding="utf-8"?>
<!-- Generator: Adobe Illustrator 15.1.0, SVG Export Plug-In . SVG Version: 6.00 Build 0)  -->

<svg version="1.1" xmlns="http://www.w3.org/2000/svg" xmlns:xlink="http://www.w3.org/1999/xlink"
	 width="32" height="32" viewBox="0 0 32 32">
<path fill="#646464" d="M29.63,23.111H2.371C1.062,23.111,0,22.049,0,20.741v-5.926c0-1.309,1.062-2.371,2.371-2.371h1.185
	c0,0,1.753-5.333,2.271-7.111c0.518-1.778,1.062-2.371,2.372-2.371h15.604c1.31,0,1.705,0.37,2.371,2.371
	c0.665,2,2.271,7.111,2.271,7.111h1.186c1.308,0,2.37,1.062,2.37,2.371v5.926C32,22.049,30.938,23.111,29.63,23.111z M8.296,20.741
	h15.408v-1.186H8.296V20.741z M23.704,12.444c0-1.308-1.063-2.519-2.371-2.519c-1.308,0-2.37,1.21-2.37,2.519
	C18.963,12.475,23.704,12.475,23.704,12.444z M8.296,18.37h15.408v-1.185H8.296V18.37z M8.296,16h15.408v-1.185H8.296V16z
	 M2.444,17.186c0,1.308,1.062,2.37,2.371,2.37c1.308,0,2.37-1.063,2.37-2.37c0-1.309-1.062-2.371-2.37-2.371
	C3.506,14.815,2.444,15.877,2.444,17.186z M24.987,5.333c-0.296-0.815-0.529-1.186-1.186-1.186h-7.209v1.186h0.593
	c0.326,0,0.592,0.266,0.592,0.592c0,0.327-0.266,0.593-0.592,0.593h-2.371c-0.327,0-0.593-0.266-0.593-0.593
	c0-0.327,0.266-0.592,0.593-0.592h0.592V4.148H8.198c-0.655,0-0.89,0.148-1.185,1.186c-0.297,1.037-2.272,7.111-2.272,7.111h13.583
	c0.026-1.616,1.339-3.132,2.957-3.132s2.93,1.515,2.958,3.132h3.021C27.259,12.444,25.283,6.149,24.987,5.333z M27.186,14.888
	c-1.309,0-2.371,1.062-2.371,2.371s1.063,2.371,2.371,2.371s2.37-1.063,2.37-2.371S28.494,14.888,27.186,14.888z M5.926,27.259
	c0,0.982-0.796,1.778-1.778,1.778s-1.777-0.796-1.777-1.778v-2.963h3.555V27.259z M29.63,27.259c0,0.982-0.797,1.778-1.778,1.778
	s-1.777-0.796-1.777-1.778v-2.963h3.556V27.259z"/>
</svg>
