<?xml version="1.0" encoding="utf-8"?>
<!-- Generator: Adobe Illustrator 15.1.0, SVG Export Plug-In . SVG Version: 6.00 Build 0)  -->

<svg version="1.1" xmlns="http://www.w3.org/2000/svg" xmlns:xlink="http://www.w3.org/1999/xlink"
	 width="32" height="32" viewBox="0 0 32 32">
<path fill="#646464" d="M25.455,2.909H6.546c-1,0-1.856,0.356-2.567,1.067C3.266,4.689,2.911,5.545,2.911,6.545v18.909
	c0,1,0.354,1.854,1.067,2.567c0.711,0.711,1.567,1.067,2.567,1.067h18.909c1,0,1.855-0.356,2.568-1.067
	c0.711-0.713,1.067-1.567,1.067-2.567V6.545c0-1-0.356-1.855-1.067-2.568C27.311,3.266,26.455,2.909,25.455,2.909z M32,6.546v18.909
	c0,1.802-0.641,3.344-1.92,4.625C28.799,31.359,27.258,32,25.455,32H6.545C4.742,32,3.2,31.359,1.92,30.08
	C0.64,28.799,0,27.257,0,25.455V6.546c0-1.803,0.64-3.345,1.92-4.625C3.201,0.641,4.743,0,6.545,0h18.91
	c1.803,0,3.344,0.641,4.625,1.921C31.359,3.201,32,4.743,32,6.546z"/>
</svg>
