<?xml version="1.0" encoding="utf-8"?>
<!-- Generator: Adobe Illustrator 15.1.0, SVG Export Plug-In . SVG Version: 6.00 Build 0)  -->

<svg version="1.1" xmlns="http://www.w3.org/2000/svg" xmlns:xlink="http://www.w3.org/1999/xlink"
	 width="32" height="32" viewBox="0 0 32 32">
<path fill="#646464" d="M32,18.227v7.229c0,1.805-0.598,3.346-1.794,4.626S27.568,32,25.885,32H6.115
	c-1.684,0-3.125-0.641-4.321-1.92C0.598,28.8,0,27.258,0,25.454V6.545C0,4.743,0.598,3.2,1.794,1.92C2.99,0.641,4.432,0,6.115,0
	h18.666c0.893,0,1.72,0.189,2.482,0.568c0.213,0.105,0.34,0.279,0.383,0.522c0.043,0.259-0.021,0.478-0.19,0.659l-1.04,1.113
	c-0.143,0.152-0.305,0.228-0.488,0.228c-0.043,0-0.105-0.015-0.189-0.045c-0.327-0.09-0.646-0.136-0.956-0.136H6.115
	c-0.934,0-1.734,0.355-2.399,1.066C3.051,4.689,2.719,5.544,2.719,6.545v18.909c0,1.001,0.333,1.854,0.997,2.567
	c0.666,0.713,1.466,1.067,2.399,1.067h19.77c0.936,0,1.733-0.354,2.398-1.067s0.998-1.566,0.998-2.567v-5.772
	c0-0.197,0.063-0.363,0.191-0.5l1.358-1.453c0.142-0.151,0.304-0.229,0.487-0.229c0.084,0,0.17,0.023,0.255,0.068
	C31.857,17.688,31.999,17.908,32,18.227L32,18.227z M31.491,9.477L16.415,25.611c-0.34,0.365-0.743,0.548-1.21,0.548
	s-0.871-0.183-1.21-0.548l-9.13-9.771c-0.34-0.363-0.51-0.795-0.51-1.295s0.17-0.932,0.51-1.295l1.924-1.708
	c0.34-0.364,0.743-0.545,1.21-0.545c0.466,0,0.87,0.183,1.21,0.545l5.958,6.5L27.122,5.084c0.339-0.363,0.743-0.545,1.21-0.545
	c0.468,0,0.87,0.182,1.21,0.545l1.948,1.803C31.831,7.249,32,7.682,32,8.182C32,8.68,31.831,9.111,31.491,9.477L31.491,9.477z"/>
</svg>
