<?xml version="1.0" encoding="utf-8"?>
<!-- Generator: Adobe Illustrator 15.1.0, SVG Export Plug-In . SVG Version: 6.00 Build 0)  -->

<svg version="1.1" xmlns="http://www.w3.org/2000/svg" xmlns:xlink="http://www.w3.org/1999/xlink"
	 width="32" height="32" viewBox="0 0 32 32">
<path fill="#646464" d="M18.938,26.396l2.125-2.125c0.265-0.265,0.396-0.576,0.396-0.938s-0.132-0.674-0.396-0.938L14.666,16
	l6.396-6.396c0.264-0.264,0.396-0.576,0.396-0.938s-0.132-0.673-0.396-0.938l-2.127-2.125c-0.264-0.264-0.576-0.396-0.937-0.396
	s-0.674,0.132-0.938,0.396l-9.457,9.459C7.338,15.326,7.207,15.639,7.207,16s0.132,0.673,0.396,0.938l9.457,9.457
	c0.265,0.266,0.576,0.396,0.938,0.396C18.359,26.792,18.673,26.66,18.938,26.396L18.938,26.396z M32,16
	c0,2.902-0.715,5.58-2.146,8.031c-1.431,2.451-3.371,4.393-5.822,5.822C21.579,31.285,18.902,32.001,16,32
	c-2.902,0-5.58-0.716-8.031-2.146s-4.393-3.371-5.822-5.822C0.715,21.579,0,18.902,0,16s0.715-5.58,2.146-8.031
	c1.431-2.451,3.371-4.393,5.822-5.822C10.42,0.715,13.098,0,16,0s5.579,0.715,8.031,2.146c2.451,1.431,4.393,3.371,5.822,5.822
	C31.284,10.42,32,13.098,32,16z"/>
</svg>
