<?xml version="1.0" encoding="utf-8"?>
<!-- Generator: Adobe Illustrator 15.1.0, SVG Export Plug-In . SVG Version: 6.00 Build 0)  -->

<svg version="1.1" xmlns="http://www.w3.org/2000/svg" xmlns:xlink="http://www.w3.org/1999/xlink"
	 width="32" height="32" viewBox="0 0 32 32">
<path fill="#646464" d="M13.063,5.604l-2.125,2.125c-0.265,0.265-0.396,0.576-0.396,0.938s0.132,0.674,0.396,0.938L17.334,16
	l-6.396,6.396c-0.264,0.264-0.396,0.576-0.396,0.938c0,0.359,0.132,0.673,0.396,0.938l2.127,2.125
	c0.264,0.265,0.576,0.396,0.937,0.396s0.674-0.132,0.938-0.396l9.457-9.459c0.266-0.264,0.396-0.576,0.396-0.937
	s-0.132-0.673-0.396-0.937l-9.457-9.459c-0.265-0.265-0.576-0.396-0.938-0.396C13.641,5.208,13.327,5.34,13.063,5.604L13.063,5.604z
	 M0,16c0-2.902,0.715-5.58,2.146-8.031c1.431-2.451,3.371-4.393,5.822-5.822C10.421,0.715,13.098-0.001,16,0
	c2.902,0,5.58,0.716,8.031,2.146s4.393,3.371,5.822,5.822C31.285,10.421,32,13.098,32,16s-0.715,5.579-2.146,8.031
	c-1.431,2.451-3.371,4.393-5.822,5.822C21.58,31.284,18.902,32,16,32s-5.579-0.715-8.031-2.146
	c-2.451-1.431-4.393-3.371-5.822-5.822C0.716,21.58,0,18.902,0,16z"/>
</svg>
