<?xml version="1.0" encoding="utf-8"?>
<!-- Generator: Adobe Illustrator 15.1.0, SVG Export Plug-In . SVG Version: 6.00 Build 0)  -->

<svg version="1.1" xmlns="http://www.w3.org/2000/svg" xmlns:xlink="http://www.w3.org/1999/xlink"
	 width="32" height="32" viewBox="0 0 32 32">
<path fill="#646464" d="M20.916,0c0.712,0,1.335,0.254,1.869,0.76l1.54,1.541c0.507,0.533,0.76,1.157,0.76,1.868
	c0,0.728-0.253,1.343-0.76,1.851L14.342,16l9.982,9.982c0.507,0.506,0.76,1.123,0.76,1.849c0,0.712-0.253,1.335-0.76,1.869
	l-1.54,1.521C22.264,31.74,21.641,32,20.915,32c-0.739,0-1.354-0.26-1.849-0.779L5.695,17.85c-0.521-0.494-0.78-1.109-0.78-1.85
	c0-0.727,0.261-1.35,0.78-1.869L19.066,0.762C19.574,0.254,20.189,0,20.916,0L20.916,0z"/>
</svg>
