<?xml version="1.0" encoding="utf-8"?>
<!-- Generator: Adobe Illustrator 15.1.0, SVG Export Plug-In . SVG Version: 6.00 Build 0)  -->

<svg version="1.1" xmlns="http://www.w3.org/2000/svg" xmlns:xlink="http://www.w3.org/1999/xlink"
	 width="32" height="32" viewBox="0 0 32 32">
<path fill="#646464" d="M32,20.916c0,0.711-0.254,1.334-0.76,1.869l-1.541,1.539c-0.533,0.508-1.157,0.76-1.868,0.76
	c-0.728,0-1.343-0.252-1.851-0.76L16,14.342l-9.982,9.982c-0.506,0.508-1.123,0.76-1.848,0.76c-0.712,0-1.335-0.252-1.869-0.76
	l-1.52-1.539C0.26,22.264,0,21.641,0,20.916c0-0.74,0.26-1.355,0.781-1.85L14.152,5.696c0.492-0.521,1.109-0.78,1.849-0.78
	c0.726,0,1.349,0.261,1.869,0.78l13.37,13.371C31.746,19.572,32,20.189,32,20.916L32,20.916z"/>
</svg>
