<?xml version="1.0" encoding="utf-8"?>
<!-- Generator: Adobe Illustrator 15.1.0, SVG Export Plug-In . SVG Version: 6.00 Build 0)  -->

<svg version="1.1" xmlns="http://www.w3.org/2000/svg" xmlns:xlink="http://www.w3.org/1999/xlink"
	 width="32" height="32" viewBox="0 0 32 32">
<path fill="#646464" d="M32,11.085c0,0.726-0.254,1.343-0.762,1.849L17.869,26.305c-0.521,0.521-1.145,0.78-1.869,0.78
	c-0.738,0-1.355-0.261-1.85-0.78L0.781,12.934C0.26,12.439,0,11.824,0,11.085c0-0.726,0.26-1.349,0.781-1.869l1.52-1.541
	c0.534-0.506,1.157-0.76,1.869-0.76c0.727,0,1.342,0.253,1.848,0.76L16,17.658l9.98-9.983c0.508-0.506,1.123-0.76,1.851-0.76
	c0.711,0,1.335,0.253,1.868,0.76l1.541,1.541C31.746,9.75,32,10.373,32,11.085L32,11.085z"/>
</svg>
