<?xml version="1.0" encoding="utf-8"?>
<!-- Generator: Adobe Illustrator 15.1.0, SVG Export Plug-In . SVG Version: 6.00 Build 0)  -->

<svg version="1.1" xmlns="http://www.w3.org/2000/svg" xmlns:xlink="http://www.w3.org/1999/xlink"
	 width="32" height="32" viewBox="0 0 32 32">
<path fill="#646464" d="M23.938,20.708c0-0.36-0.133-0.673-0.396-0.937L19.771,16l3.771-3.771c0.265-0.264,0.396-0.576,0.396-0.937
	c0-0.375-0.133-0.694-0.396-0.958l-1.875-1.875c-0.265-0.264-0.583-0.396-0.958-0.396c-0.361,0-0.674,0.133-0.938,0.396L16,12.229
	l-3.771-3.771c-0.265-0.265-0.576-0.396-0.938-0.396c-0.375,0-0.693,0.131-0.959,0.396l-1.875,1.875
	c-0.264,0.265-0.396,0.583-0.396,0.958c0,0.361,0.133,0.674,0.396,0.938L12.229,16l-3.771,3.771
	c-0.265,0.264-0.396,0.574-0.396,0.937c0,0.375,0.131,0.694,0.396,0.959l1.875,1.875c0.265,0.265,0.584,0.396,0.959,0.396
	c0.36,0,0.674-0.131,0.938-0.396l3.771-3.771l3.771,3.771c0.265,0.265,0.576,0.396,0.938,0.396c0.375,0,0.694-0.131,0.958-0.396
	l1.875-1.875C23.805,21.402,23.938,21.083,23.938,20.708z M32,16c0,2.902-0.715,5.58-2.146,8.031
	c-1.431,2.451-3.371,4.393-5.822,5.822C21.579,31.285,18.902,32.001,16,32c-2.902,0-5.58-0.716-8.031-2.146
	s-4.393-3.371-5.822-5.822C0.715,21.579,0,18.902,0,16s0.715-5.58,2.146-8.031c1.431-2.451,3.371-4.393,5.822-5.822
	C10.42,0.715,13.098,0,16,0s5.579,0.715,8.031,2.146c2.451,1.431,4.393,3.371,5.822,5.822C31.284,10.42,32,13.098,32,16z"/>
</svg>
