<?xml version="1.0" encoding="utf-8"?>
<!-- Generator: Adobe Illustrator 15.1.0, SVG Export Plug-In . SVG Version: 6.00 Build 0)  -->

<svg version="1.1" id="Layer_2" xmlns="http://www.w3.org/2000/svg" xmlns:xlink="http://www.w3.org/1999/xlink"
	 width="32" height="32" viewBox="16.5 22 32 32" enable-background="new 16.5 22 32 32" xml:space="preserve">
<path fill="#646464" d="M48.5,38c0,8.837-7.163,16-16,16c-8.836,0-16-7.163-16-16c0-8.836,7.164-16,16-16
	C41.337,22,48.5,29.164,48.5,38z M35.293,40.835l0.398-13.759c0-0.178-0.094-0.576-0.754-0.576h-4.875
	c-0.628,0-0.753,0.398-0.753,0.576l0.377,13.759c0,0.15,0.091,0.555,0.753,0.555h4.1C35.238,41.39,35.277,40.985,35.293,40.835z
	 M35.336,48.768v-4.209c0-0.411-0.148-0.731-0.686-0.731h-4.256c-0.528,0-0.73,0.32-0.73,0.731v4.209
	c0,0.434,0.309,0.732,0.73,0.732h4.256C34.977,49.5,35.336,49.299,35.336,48.768L35.336,48.768z"/>
</svg>
