<?xml version="1.0" encoding="utf-8"?>
<!-- Generator: Adobe Illustrator 15.1.0, SVG Export Plug-In . SVG Version: 6.00 Build 0)  -->

<svg version="1.1" xmlns="http://www.w3.org/2000/svg" xmlns:xlink="http://www.w3.org/1999/xlink"
	 width="32" height="32" viewBox="0 0 32 32">
<path fill="#646464" d="M21.333,26v-3.334c0-0.193-0.063-0.354-0.188-0.479S20.859,22,20.667,22h-2V11.333
	c0-0.194-0.063-0.354-0.188-0.479S18.195,10.667,18,10.666h-6.666c-0.193,0-0.354,0.063-0.479,0.188s-0.188,0.285-0.188,0.479v3.333
	c0,0.195,0.063,0.354,0.188,0.479s0.285,0.188,0.479,0.188h1.999V22h-1.999c-0.193,0-0.354,0.063-0.479,0.188
	s-0.188,0.285-0.188,0.479V26c0,0.193,0.063,0.354,0.188,0.479s0.285,0.188,0.479,0.188h9.333c0.194,0,0.354-0.063,0.479-0.188
	S21.333,26.193,21.333,26L21.333,26z M18.666,7.333V4c0-0.195-0.063-0.354-0.188-0.479s-0.285-0.188-0.479-0.188H14
	c-0.195,0-0.354,0.063-0.479,0.188S13.333,3.805,13.333,4v3.333c0,0.194,0.063,0.354,0.188,0.479S13.807,8,14,8h3.999
	c0.194,0,0.354-0.063,0.479-0.188S18.666,7.527,18.666,7.333z M32,16c0,2.902-0.715,5.58-2.146,8.031
	c-1.431,2.451-3.371,4.393-5.822,5.822C21.579,31.285,18.902,32.001,16,32c-2.902,0-5.58-0.716-8.031-2.146
	s-4.393-3.371-5.822-5.822C0.715,21.579,0,18.902,0,16s0.715-5.58,2.146-8.031c1.431-2.451,3.371-4.393,5.822-5.822
	C10.42,0.715,13.098,0,16,0s5.579,0.715,8.031,2.146c2.451,1.431,4.393,3.371,5.822,5.822C31.284,10.42,32,13.098,32,16z"/>
</svg>
