<?xml version="1.0" encoding="utf-8"?>
<!-- Generator: Adobe Illustrator 15.1.0, SVG Export Plug-In . SVG Version: 6.00 Build 0)  -->

<svg version="1.1" xmlns="http://www.w3.org/2000/svg" xmlns:xlink="http://www.w3.org/1999/xlink"
	 width="32" height="32" viewBox="0 0 32 32">
<path fill="#646464" d="M30.694,18.286c-0.915,6.457-5.975,11.571-12.408,12.567V32h-4.572v-1.146
	C7.28,29.858,2.22,24.743,1.305,18.286H0v-4.572h1.358C2.414,7.437,7.407,2.503,13.714,1.527V0h4.572v1.527
	c6.308,0.976,11.299,5.91,12.356,12.188H32v4.572H30.694z M14.857,30.857h2.286v-2.286h-2.286V30.857z M1.143,14.857v2.286h2.286
	v-2.286H1.143z M17.143,1.143h-2.286v2.286h2.286V1.143z M18.286,3.259v1.312h-4.572V3.259c-5.36,0.942-9.601,5.124-10.62,10.455
	h1.477v4.572H3.033c0.886,5.511,5.195,9.872,10.682,10.834v-1.691h4.572v1.691c5.486-0.964,9.794-5.323,10.681-10.834h-1.538v-4.572
	h1.477C27.886,8.383,23.646,4.202,18.286,3.259z M30.857,14.857h-2.286v2.286h2.286V14.857z"/>
</svg>
