<?xml version="1.0" encoding="utf-8"?>
<!-- Generator: Adobe Illustrator 15.1.0, SVG Export Plug-In . SVG Version: 6.00 Build 0)  -->

<svg version="1.1" xmlns="http://www.w3.org/2000/svg" xmlns:xlink="http://www.w3.org/1999/xlink" width="32"
	 height="32" viewBox="0 0 32 32">
<g id="Layer_2">
</g>
<g>
	<path fill="#646464" d="M32,16c0,8.837-7.163,16-16,16C7.164,32,0,24.837,0,16C0,7.164,7.164,0,16,0C24.837,0,32,7.164,32,16z
		 M25.333,17.333v-2.667c0-0.744-0.332-1.334-1.332-1.334h-5.334V8c0-0.594-0.432-1.334-1.334-1.334h-2.668
		c-0.961,0-1.32,0.646-1.333,1.334v5.333H8.001c-0.891,0-1.334,0.635-1.334,1.334v2.667c0,0.791,0.428,1.333,1.334,1.333h5.333V24
		c0,0.781,0.401,1.334,1.334,1.334h2.667c0.869,0,1.334-0.6,1.334-1.334v-5.334h5.332C24.517,18.666,25.333,18.313,25.333,17.333z"
		/>
</g>
</svg>
