<?xml version="1.0" encoding="utf-8"?>
<!-- Generator: Adobe Illustrator 15.1.0, SVG Export Plug-In . SVG Version: 6.00 Build 0)  -->

<svg version="1.1" xmlns="http://www.w3.org/2000/svg" xmlns:xlink="http://www.w3.org/1999/xlink"
	 width="32" height="32" viewBox="0 0 32 32">
<path fill="#646464" d="M21.334,16c0-1.473-0.521-2.729-1.563-3.771c-1.043-1.041-2.299-1.563-3.771-1.563
	c-1.473-0.001-2.729,0.521-3.77,1.563c-1.043,1.043-1.563,2.299-1.563,3.771s0.521,2.729,1.563,3.771
	c1.041,1.041,2.297,1.563,3.77,1.563c1.472-0.002,2.728-0.521,3.771-1.563C20.813,18.729,21.334,17.473,21.334,16z M32,13.729v4.625
	c0,0.166-0.057,0.328-0.166,0.48c-0.111,0.152-0.25,0.242-0.416,0.27l-3.855,0.584c-0.264,0.75-0.533,1.381-0.811,1.896
	c0.484,0.694,1.229,1.653,2.229,2.877c0.141,0.166,0.207,0.34,0.207,0.521c0,0.18-0.061,0.34-0.188,0.479
	c-0.375,0.514-1.063,1.264-2.063,2.25s-1.652,1.479-1.959,1.479c-0.166,0-0.348-0.063-0.541-0.188l-2.875-2.25
	c-0.611,0.32-1.244,0.584-1.896,0.793c-0.223,1.889-0.424,3.18-0.604,3.875C18.967,31.805,18.715,32,18.313,32h-4.625
	c-0.193,0-0.363-0.061-0.51-0.178c-0.146-0.117-0.226-0.268-0.24-0.447l-0.582-3.834c-0.682-0.223-1.307-0.48-1.875-0.771L7.542,29
	c-0.14,0.125-0.313,0.188-0.521,0.188c-0.195,0-0.369-0.076-0.521-0.229c-1.75-1.584-2.896-2.75-3.438-3.5
	c-0.098-0.14-0.146-0.299-0.146-0.479c0-0.166,0.055-0.326,0.167-0.479c0.208-0.293,0.562-0.754,1.063-1.387
	c0.5-0.631,0.875-1.121,1.125-1.467c-0.375-0.695-0.66-1.383-0.854-2.063L0.604,19.02c-0.18-0.027-0.326-0.113-0.438-0.26
	S0,18.45,0,18.271v-4.627c0-0.166,0.056-0.326,0.167-0.479s0.243-0.243,0.396-0.271l3.875-0.582c0.193-0.64,0.465-1.278,0.813-1.918
	C4.696,9.604,3.953,8.645,3.022,7.52c-0.14-0.166-0.209-0.332-0.209-0.5c0-0.139,0.063-0.299,0.188-0.479
	c0.36-0.501,1.045-1.247,2.052-2.24c1.008-0.992,1.663-1.488,1.969-1.488c0.181,0,0.361,0.068,0.543,0.209L10.44,5.25
	c0.61-0.318,1.242-0.583,1.896-0.792c0.222-1.89,0.424-3.181,0.604-3.874C13.038,0.193,13.287,0,13.69,0h4.625
	c0.193,0,0.363,0.059,0.51,0.178c0.146,0.117,0.227,0.268,0.24,0.447l0.582,3.833c0.682,0.224,1.307,0.479,1.875,0.771L24.479,3
	c0.125-0.125,0.293-0.188,0.502-0.188c0.18,0,0.354,0.068,0.521,0.207c1.791,1.653,2.936,2.834,3.438,3.543
	c0.098,0.109,0.146,0.264,0.146,0.457c0,0.168-0.057,0.326-0.168,0.479c-0.207,0.292-0.563,0.754-1.063,1.386
	c-0.5,0.633-0.875,1.121-1.125,1.469c0.361,0.694,0.646,1.375,0.855,2.041l3.813,0.584c0.182,0.027,0.326,0.115,0.438,0.26
	C31.943,13.385,32,13.548,32,13.729L32,13.729z"/>
</svg>
