<?xml version="1.0" encoding="utf-8"?>
<!-- Generator: Adobe Illustrator 15.1.0, SVG Export Plug-In . SVG Version: 6.00 Build 0)  -->

<svg version="1.1" xmlns="http://www.w3.org/2000/svg" xmlns:xlink="http://www.w3.org/1999/xlink"
	 width="32" height="32" viewBox="0 0 32 32">
<g>
	<g>
		<path fill="#646464" d="M30.313,14.75c-2.021,0-4.042,0-6.063,0c-0.682,0-1.251,0.46-1.446,1.101
			c-1.431,4.689-2.861,9.377-4.292,14.066c0.964,0,1.929,0,2.893,0c-2.346-9.605-4.691-19.21-7.038-28.815
			c-0.361-1.479-2.483-1.386-2.893,0c-1.453,4.917-2.905,9.833-4.357,14.749c0.482-0.367,0.964-0.734,1.446-1.101
			c-2.354,0-4.708,0-7.063,0c-1.935,0-1.935,3,0,3c2.354,0,4.708,0,7.063,0c0.677,0,1.257-0.459,1.446-1.101
			c1.453-4.917,2.905-9.833,4.357-14.749c-0.964,0-1.928,0-2.893,0c2.346,9.604,4.691,19.209,7.038,28.814
			c0.363,1.488,2.473,1.377,2.893,0c1.431-4.688,2.861-9.377,4.292-14.065c-0.482,0.367-0.964,0.734-1.446,1.101
			c2.021,0,4.042,0,6.063,0C32.247,17.75,32.247,14.75,30.313,14.75L30.313,14.75z"/>
	</g>
</g>
</svg>
