<?xml version="1.0" encoding="utf-8"?>
<!-- Generator: Adobe Illustrator 15.1.0, SVG Export Plug-In . SVG Version: 6.00 Build 0)  -->

<svg version="1.1" xmlns="http://www.w3.org/2000/svg" xmlns:xlink="http://www.w3.org/1999/xlink"
	 width="32" height="32" viewBox="-4 -4 32 32" enable-background="new -4 -4 32 32" xml:space="preserve">
<path fill="#646464" d="M25.368,3.52l0.027-0.027l-6.621-6.604l-1.886,1.885l3.75,3.751c-1.67,0.64-2.861,2.249-2.861,4.142
	c0,2.453,1.992,4.445,4.445,4.445c0.632,0,1.235-0.134,1.777-0.374v12.818c0,0.978-0.801,1.777-1.777,1.777
	c-0.978,0-1.778-0.8-1.778-1.777v-8c0-1.966-1.59-3.556-3.556-3.556h-1.777V-0.444C15.111-2.409,13.521-4,11.556-4H0.889
	c-1.965,0-3.556,1.591-3.556,3.556V28h17.778V14.667h2.666v8.889c0,2.453,1.992,4.444,4.445,4.444s4.444-1.991,4.444-4.444V6.667
	C26.667,5.44,26.17,4.329,25.368,3.52z M11.556,8.444H0.889v-8.889h10.667V8.444z M22.223,8.444c-0.978,0-1.778-0.8-1.778-1.778
	c0-0.977,0.801-1.778,1.778-1.778C23.199,4.889,24,5.689,24,6.667C24,7.644,23.199,8.444,22.223,8.444z"/>
</svg>
