<?xml version="1.0" encoding="utf-8"?>
<!-- Generator: Adobe Illustrator 15.1.0, SVG Export Plug-In . SVG Version: 6.00 Build 0)  -->

<svg version="1.1" xmlns="http://www.w3.org/2000/svg" xmlns:xlink="http://www.w3.org/1999/xlink"
	 width="32" height="32" viewBox="0 0 32 32">
<path fill="#646464" d="M10.355,9.031C4.541,9.611,0,14.52,0,20.486C0,26.846,5.152,32,11.514,32
	c5.967,0,10.875-4.541,11.454-10.355H10.355V9.031z M22.968,19.331c-0.542-5.435-4.864-9.757-10.299-10.3v10.3H22.968z M32,0H10.355
	v9.031c0.381-0.037,0.767-0.057,1.156-0.057c0.391,0,0.775,0.02,1.156,0.057V2.311h17.02v17.021h-6.721
	c0.038,0.381,0.059,0.767,0.059,1.155c0,0.39-0.021,0.777-0.059,1.156H32V0z"/>
</svg>
