<?xml version="1.0" encoding="utf-8"?>
<!-- Generator: Adobe Illustrator 15.1.0, SVG Export Plug-In . SVG Version: 6.00 Build 0)  -->

<svg version="1.1" id="Capa_1" xmlns="http://www.w3.org/2000/svg" xmlns:xlink="http://www.w3.org/1999/xlink"
	 width="32" height="32" viewBox="290 380 32 32" enable-background="new 290 380 32 32" xml:space="preserve">
<g>
	<g>
		<path fill="#646464" d="M310.645,387.518h-9.29c-1.459,0-2.643,1.308-2.643,2.922v11.119c0,1.613,1.184,2.922,2.643,2.922h9.29
			c1.46,0,2.644-1.309,2.644-2.922v-11.119C313.288,388.826,312.105,387.518,310.645,387.518z"/>
		<path fill="#646464" d="M318.889,397.228c0.613,0,1.111-0.55,1.111-1.229c0-0.678-0.498-1.229-1.111-1.229h-2.536v-2.775h2.536
			c0.613,0,1.111-0.55,1.111-1.229c0-0.678-0.498-1.228-1.111-1.228h-2.559c-0.217-2.715-2.086-4.913-4.486-5.355v-2.957
			c0-0.679-0.498-1.229-1.111-1.229c-0.614,0-1.112,0.55-1.112,1.229v2.874h-2.509v-2.874c0-0.679-0.498-1.229-1.111-1.229
			c-0.614,0-1.111,0.55-1.111,1.229v2.874h-2.51v-2.874c0-0.679-0.497-1.229-1.111-1.229c-0.614,0-1.111,0.55-1.111,1.229v2.957
			c-2.4,0.442-4.27,2.639-4.486,5.355h-2.559c-0.614,0-1.111,0.55-1.111,1.228c0,0.679,0.497,1.229,1.111,1.229h2.537v2.775h-2.537
			c-0.614,0-1.111,0.55-1.111,1.229c0,0.679,0.497,1.229,1.111,1.229h2.537v2.774h-2.537c-0.614,0-1.111,0.551-1.111,1.229
			c0,0.679,0.497,1.229,1.111,1.229h2.56c0.216,2.716,2.086,4.913,4.486,5.354v2.957c0,0.679,0.497,1.229,1.111,1.229
			c0.614,0,1.111-0.55,1.111-1.229v-2.874h2.51v2.874c0,0.679,0.498,1.229,1.111,1.229s1.111-0.55,1.111-1.229v-2.874h2.509v2.874
			c0,0.679,0.498,1.229,1.112,1.229c0.613,0,1.111-0.55,1.111-1.229v-2.956c2.4-0.442,4.27-2.64,4.486-5.355h2.559
			c0.613,0,1.111-0.55,1.111-1.229c0-0.678-0.498-1.228-1.111-1.228h-2.536v-2.775H318.889L318.889,397.228L318.889,397.228z
			 M314.578,401.929c0,2.209-1.625,4.006-3.624,4.006h-9.909c-1.998,0-3.623-1.797-3.623-4.006v-11.86
			c0-2.208,1.625-4.005,3.623-4.005h9.909c1.999,0,3.624,1.797,3.624,4.005V401.929L314.578,401.929z"/>
	</g>
</g>
</svg>
