<?xml version="1.0" encoding="utf-8"?>

<svg version="1.1" xmlns="http://www.w3.org/2000/svg" xmlns:xlink="http://www.w3.org/1999/xlink" x="0" y="0"
	 width="32" height="32" viewBox="0 0 32 32">
	<path fill="#646464" d="M26.23,10.263c2.426,1.721,4.418,4.034,5.77,6.736c-2.971,5.938-9.02,10-16,10
		c-1.955,0-3.837-0.318-5.599-0.908l2.436-2.438c1.033,0.229,2.094,0.346,3.163,0.346c2.798,0,5.527-0.796,7.89-2.303
		c1.879-1.199,3.473-2.807,4.67-4.697c-1.158-1.83-2.689-3.393-4.49-4.578L26.23,10.263z M16,22.812
		c-0.71,0-1.397-0.092-2.054-0.267l9.788-9.787C23.908,13.413,24,14.103,24,14.812C24,19.231,20.418,22.812,16,22.812z M30,1h-1.68
		l-6.863,6.862C19.736,7.304,17.902,7,16,7C9.021,7,2.972,11.063,0,17c1.333,2.663,3.285,4.946,5.662,6.659L0,29.321V31h1.68
		L29.998,2.681V1H30z M13,10.813c1.501,0,2.745,1.103,2.965,2.541l-3.422,3.424C11.103,16.558,10,15.313,10,13.813
		C10,12.155,11.343,10.813,13,10.813z M3.441,17c1.197-1.892,2.791-3.497,4.67-4.696c0.123-0.078,0.246-0.154,0.371-0.228
		c-0.311,0.854-0.48,1.776-0.48,2.737c0,1.828,0.614,3.514,1.646,4.86l-1.83,1.83C6.066,20.327,4.575,18.792,3.441,17z"/>
</svg>
