<?xml version="1.0" encoding="utf-8"?>
<!-- Generator: Adobe Illustrator 15.1.0, SVG Export Plug-In . SVG Version: 6.00 Build 0)  -->

<svg version="1.1" id="Capa_1" xmlns="http://www.w3.org/2000/svg" xmlns:xlink="http://www.w3.org/1999/xlink"
	 width="32" height="32" viewBox="229.767 229.767 32 32" enable-background="new 229.767 229.767 32 32" xml:space="preserve">
<g>
	<g>
		<g id="Icons_9_">
			<g>
				<path fill="#646464" d="M249.724,253.699h-7.913c-0.588,0-1.066,0.478-1.066,1.066s0.478,1.066,1.066,1.066h7.913
					c0.588,0,1.066-0.478,1.066-1.066S250.312,253.699,249.724,253.699z"/>
				<path fill="#646464" d="M243.694,259.999v0.581c0,0.656,0.531,1.188,1.188,1.188h1.773c0.655,0,1.188-0.531,1.188-1.188v-0.581
					c1.344-0.096,2.407-1.204,2.407-2.572h-8.964C241.285,258.795,242.35,259.903,243.694,259.999z"/>
				<path fill="#646464" d="M245.768,229.767c-5.904,0-10.691,4.786-10.691,10.69c0,2.491,0.857,4.778,2.289,6.594
					c1.266,1.604,2.466,3.358,3.5,5.123h9.803c1.045-1.781,2.223-3.502,3.501-5.124c1.431-1.815,2.288-4.103,2.288-6.593
					C256.458,234.553,251.671,229.767,245.768,229.767z M245.786,233.476c-3.795,0-6.882,3.086-6.882,6.881
					c0,0.589-0.477,1.066-1.067,1.066c-0.589,0-1.066-0.478-1.066-1.066c0-4.97,4.044-9.014,9.015-9.014
					c0.588,0,1.066,0.478,1.066,1.066C246.852,232.999,246.374,233.476,245.786,233.476z"/>
			</g>
		</g>
	</g>
</g>
</svg>
