<?xml version="1.0" encoding="utf-8"?>

<svg version="1.1" xmlns="http://www.w3.org/2000/svg" xmlns:xlink="http://www.w3.org/1999/xlink"
	 width="32" height="32" viewBox="0 0 32 32">
<path fill="#646464" d="M16,0C7.111,0,0,7.111,0,16s7.111,16,16,16c1.422,0,2.666-1.244,2.666-2.667
	c0-0.711-0.178-1.244-0.711-1.776c-0.355-0.533-0.711-1.066-0.711-1.779c0-1.422,1.244-2.666,2.666-2.666h3.199
	c4.979,0,8.891-3.91,8.891-8.889C32,6.4,24.889,0,16,0z M6.223,16c-1.423,0-2.666-1.245-2.666-2.667s1.243-2.667,2.666-2.667
	c1.422,0,2.666,1.245,2.666,2.667S7.645,16,6.223,16z M11.557,8.889c-1.424,0-2.668-1.244-2.668-2.668
	c0-1.423,1.244-2.666,2.668-2.666c1.422,0,2.666,1.243,2.666,2.666C14.223,7.645,12.979,8.889,11.557,8.889z M20.445,8.889
	c-1.424,0-2.668-1.244-2.668-2.668c0-1.423,1.244-2.666,2.668-2.666c1.422,0,2.666,1.243,2.666,2.666
	C23.111,7.645,21.866,8.889,20.445,8.889z M25.777,16c-1.422,0-2.666-1.245-2.666-2.667s1.244-2.667,2.666-2.667
	c1.423,0,2.668,1.245,2.668,2.667S27.199,16,25.777,16z"/>
</svg>
