<?xml version="1.0" encoding="utf-8"?>
<!-- Generator: Adobe Illustrator 15.1.0, SVG Export Plug-In . SVG Version: 6.00 Build 0)  -->

<svg version="1.1" xmlns="http://www.w3.org/2000/svg" xmlns:xlink="http://www.w3.org/1999/xlink" width="32"
	 height="32" viewBox="40 40 32 32" enable-background="new 40 40 32 32" xml:space="preserve">
<g id="Layer_2">
</g>
<g id="Capa_1">
	<path fill="#646464" d="M72,47.826v20.395c0,1.344-1.089,2.434-2.432,2.434H42.433c-1.344,0-2.433-1.09-2.433-2.434V47.826
		c0-1.344,1.089-2.434,2.434-2.434h0.233v-0.541c0-0.438,0.354-0.792,0.792-0.792h3.75c0.437,0,0.792,0.354,0.792,0.792v0.541h2.065
		l1.633-3.376c0.185-0.381,0.571-0.624,0.994-0.624h10.616c0.423,0,0.81,0.243,0.991,0.624l1.634,3.376h3.634
		C70.911,45.393,72,46.482,72,47.826z M47,48.039c0-0.92-0.747-1.667-1.667-1.667s-1.667,0.747-1.667,1.667s0.747,1.667,1.667,1.667
		S47,48.959,47,48.039z M56.152,49.361c-3.187,0.707-5.757,3.277-6.464,6.464c-1.403,6.323,4.106,11.831,10.429,10.431
		c3.188-0.707,5.758-3.279,6.465-6.465C67.984,53.469,62.475,47.96,56.152,49.361z M64.063,58.757
		c-0.387,2.527-2.452,4.592-4.979,4.979c-4.055,0.621-7.497-2.82-6.876-6.875c0.387-2.526,2.452-4.592,4.979-4.979
		C61.24,51.26,64.682,54.701,64.063,58.757z"/>
</g>
</svg>
