<?xml version="1.0" encoding="utf-8"?>
<!-- Generator: Adobe Illustrator 15.1.0, SVG Export Plug-In . SVG Version: 6.00 Build 0)  -->

<svg version="1.1" xmlns="http://www.w3.org/2000/svg" xmlns:xlink="http://www.w3.org/1999/xlink" width="32"
	 height="32" viewBox="0 0 32 32">
<g id="Layer_2">
</g>
<g>
	<path fill="#646464" d="M32,18.285v-4.572c0-1.275-0.569-2.287-2.284-2.287h-9.143V2.285c0-1.018-0.739-2.287-2.288-2.287h-4.574
		c-1.647,0-2.263,1.108-2.285,2.287v9.143h-9.14C0.76,11.428,0,12.516,0,13.715v4.572c0,1.356,0.734,2.286,2.287,2.286h9.143v9.142
		c0,1.339,0.688,2.286,2.287,2.286h4.573c1.49,0,2.287-1.027,2.287-2.286V20.57h9.14C30.601,20.57,32,19.965,32,18.285z"/>
</g>
</svg>
