<?xml version="1.0" encoding="utf-8"?>
<!-- Generator: Adobe Illustrator 15.1.0, SVG Export Plug-In . SVG Version: 6.00 Build 0)  -->

<svg version="1.1" xmlns="http://www.w3.org/2000/svg" xmlns:xlink="http://www.w3.org/1999/xlink"
	 width="32" height="32" viewBox="22 22 32 32" enable-background="new 22 22 32 32" xml:space="preserve">
<path fill="#646464" d="M23.23,39.231c0-2.334,0.516-4.532,1.548-6.597c1.032-2.064,2.484-3.795,4.356-5.192
	c0.551-0.41,1.164-0.57,1.836-0.48s1.208,0.41,1.605,0.962c0.41,0.538,0.567,1.144,0.471,1.817
	c-0.096,0.673-0.414,1.215-0.952,1.625c-1.256,0.948-2.228,2.108-2.914,3.48s-1.029,2.833-1.029,4.385
	c0,1.333,0.26,2.605,0.779,3.817c0.519,1.211,1.221,2.26,2.105,3.144c0.884,0.885,1.933,1.587,3.144,2.106
	c1.212,0.519,2.484,0.778,3.818,0.778c1.334,0,2.605-0.26,3.817-0.778c1.212-0.52,2.26-1.222,3.145-2.106
	c0.884-0.884,1.586-1.933,2.105-3.144c0.52-1.212,0.779-2.484,0.779-3.817c0-1.552-0.343-3.013-1.029-4.385
	c-0.686-1.372-1.657-2.532-2.913-3.48c-0.538-0.41-0.855-0.952-0.951-1.625c-0.097-0.674,0.061-1.279,0.471-1.817
	c0.397-0.552,0.936-0.872,1.615-0.962s1.288,0.07,1.827,0.48c1.872,1.397,3.323,3.128,4.355,5.192s1.548,4.263,1.548,6.597
	c0,1.999-0.391,3.909-1.173,5.73c-0.781,1.819-1.833,3.391-3.153,4.711c-1.32,1.321-2.892,2.372-4.712,3.154
	C41.911,53.608,40,54,38.001,54c-2,0-3.91-0.391-5.731-1.173c-1.82-0.782-3.391-1.834-4.711-3.154
	c-1.321-1.32-2.372-2.891-3.154-4.711C23.623,43.141,23.231,41.23,23.23,39.231L23.23,39.231z M35.538,36.77V24.462
	c0-0.667,0.244-1.244,0.731-1.731S37.334,22,38,22s1.244,0.243,1.73,0.73c0.488,0.487,0.73,1.064,0.73,1.731V36.77
	c0,0.666-0.242,1.243-0.73,1.73c-0.486,0.487-1.064,0.731-1.73,0.731s-1.244-0.244-1.731-0.731S35.538,37.436,35.538,36.77z"/>
</svg>
