<?xml version="1.0" encoding="utf-8"?>
<!-- Generator: Adobe Illustrator 15.1.0, SVG Export Plug-In . SVG Version: 6.00 Build 0)  -->

<svg version="1.1" xmlns="http://www.w3.org/2000/svg" xmlns:xlink="http://www.w3.org/1999/xlink"
	 width="32" height="32" viewBox="0 0 32 32">
<path fill="#646464" d="M7.385,28.309h17.23v-4.924H7.385V28.309z M7.385,16h17.23V8.615h-3.076c-0.514,0-0.949-0.18-1.309-0.539
	c-0.357-0.359-0.539-0.795-0.539-1.309V3.691H7.385V16L7.385,16z M29.539,17.23c0-0.334-0.121-0.621-0.365-0.865
	C28.93,16.122,28.643,16,28.309,16s-0.621,0.121-0.865,0.365c-0.242,0.244-0.365,0.533-0.365,0.865s0.123,0.621,0.365,0.865
	c0.244,0.243,0.531,0.365,0.865,0.364c0.334,0,0.621-0.122,0.865-0.364S29.539,17.564,29.539,17.23z M32,17.23v8
	c0,0.166-0.063,0.312-0.184,0.433c-0.121,0.122-0.266,0.183-0.432,0.183h-4.309v3.077c0,0.513-0.18,0.949-0.539,1.31
	c-0.359,0.357-0.795,0.537-1.309,0.537H6.77c-0.513,0-0.949-0.18-1.308-0.537c-0.358-0.359-0.539-0.797-0.539-1.31v-3.077H0.616
	c-0.167,0-0.311-0.061-0.434-0.183C0.061,25.542,0,25.396,0,25.23v-8c0-1.014,0.362-1.881,1.086-2.606
	c0.726-0.724,1.595-1.086,2.606-1.086h1.229V3.077c0-0.513,0.181-0.949,0.539-1.308C5.819,1.41,6.255,1.23,6.768,1.23h12.923
	c0.514,0,1.076,0.127,1.691,0.385c0.615,0.256,1.104,0.563,1.461,0.923l2.924,2.923c0.359,0.359,0.666,0.848,0.924,1.462
	c0.256,0.614,0.385,1.179,0.385,1.69v4.925h1.229c1.014,0,1.883,0.36,2.607,1.086C31.635,15.35,32,16.217,32,17.23L32,17.23z"/>
</svg>
