<?xml version="1.0" encoding="utf-8"?>
<!-- Generator: Adobe Illustrator 15.1.0, SVG Export Plug-In . SVG Version: 6.00 Build 0)  -->

<svg version="1.1" xmlns="http://www.w3.org/2000/svg" xmlns:xlink="http://www.w3.org/1999/xlink"
	 width="32" height="32" viewBox="0 0 32 32">
<path fill="#646464" d="M32,25.75c0,0.719-0.251,1.329-0.754,1.833l-3.663,3.662C27.08,31.749,26.471,32,25.751,32
	c-0.718,0-1.328-0.251-1.831-0.755L16,23.326l-7.919,7.919C7.578,31.749,6.968,32,6.25,32c-0.719,0-1.329-0.251-1.832-0.755
	l-3.663-3.662C0.252,27.079,0,26.469,0,25.75c0-0.717,0.252-1.328,0.755-1.83L8.674,16L0.755,8.081C0.252,7.578,0,6.967,0,6.249
	S0.252,4.92,0.755,4.417l3.663-3.663C4.921,0.251,5.531,0,6.25,0c0.718,0,1.328,0.251,1.831,0.754L16,8.673l7.92-7.919
	C24.423,0.251,25.033,0,25.751,0c0.72,0,1.329,0.251,1.832,0.754l3.663,3.663C31.749,4.92,32,5.531,32,6.249
	s-0.251,1.329-0.754,1.832L23.327,16l7.919,7.92C31.749,24.422,32,25.033,32,25.75z"/>
</svg>
