<?xml version="1.0" encoding="utf-8"?>
<!-- Generator: Adobe Illustrator 15.1.0, SVG Export Plug-In . SVG Version: 6.00 Build 0)  -->

<svg version="1.1" xmlns="http://www.w3.org/2000/svg" xmlns:xlink="http://www.w3.org/1999/xlink"
	 width="32" height="32" viewBox="-6 -6 32 32" enable-background="new -6 -6 32 32" xml:space="preserve">
<path fill="#646464" d="M16.798-5.299l-22.097,22.1c-0.934,0.935-0.934,2.461,0.003,3.398L-0.2,25.3
	c0.935,0.934,2.466,0.938,3.398,0.003L25.3,3.201c0.935-0.936,0.935-2.465,0-3.4l-5.099-5.101
	C19.262-6.237,17.734-6.232,16.798-5.299z M0.287,18.5l-1.215,1.212l-3.034-3.034l1.215-1.214L0.287,18.5z M5.144,18.5L3.93,19.712
	l-5.464-5.462l1.214-1.216L5.144,18.5z M5.144,13.641L3.93,14.855l-3.037-3.034l1.215-1.216L5.144,13.641z M7.572,11.212
	l-1.214,1.216L3.325,9.394l1.214-1.216L7.572,11.212z M12.428,11.212l-1.214,1.216L5.752,6.964L6.966,5.75L12.428,11.212z
	 M12.428,6.357l-1.214,1.214L8.18,4.537l1.215-1.214L12.428,6.357z M14.857,3.929l-1.214,1.214l-3.036-3.035l1.214-1.214
	L14.857,3.929z M19.715,3.929L18.5,5.144L13.037-0.32l1.214-1.216L19.715,3.929z M19.712-0.927L18.5,0.288L15.466-2.75l1.214-1.212
	L19.712-0.927z"/>
</svg>
