<?xml version="1.0" encoding="utf-8"?>
<!-- Generator: Adobe Illustrator 15.1.0, SVG Export Plug-In . SVG Version: 6.00 Build 0)  -->

<svg version="1.1" xmlns="http://www.w3.org/2000/svg" xmlns:xlink="http://www.w3.org/1999/xlink"
	 width="32" height="32" viewBox="484 484 32 32" enable-background="new 484 484 32 32" xml:space="preserve">
<path fill="#646464" d="M497.078,484.033c7.802,0,13.819,6.987,13.001,14.652c-0.195,1.834-0.807,3.601-1.752,5.182
	c-0.378,0.632,0.112,0.769,0.613,1.267c1.5,1.496,3.001,2.991,4.502,4.487c0.751,0.748,3.063,2.42,2.401,3.666
	c-0.764,1.439-2.947,3.496-4.411,2.038c-2.397-2.388-4.794-4.774-7.191-7.162c-0.053-0.053-1.466,0.783-1.65,0.869
	c-0.963,0.444-1.98,0.766-3.024,0.952c-1.741,0.311-3.599,0.277-5.324-0.109c-4.13-0.924-7.544-3.803-9.204-7.681
	C481.427,493.748,487.894,484.001,497.078,484.033C498.852,484.033,497.078,484.033,497.078,484.033z M497.078,488.533
	c-4.699,0-8.578,3.878-8.578,8.578c0,4.697,3.878,8.58,8.578,8.574s8.581-3.867,8.575-8.574
	C505.647,492.4,501.786,488.547,497.078,488.533C495.514,488.533,497.078,488.533,497.078,488.533z"/>
</svg>
