<?xml version="1.0" encoding="utf-8"?>
<!-- Generator: Adobe Illustrator 15.1.0, SVG Export Plug-In . SVG Version: 6.00 Build 0)  -->

<svg version="1.1" xmlns="http://www.w3.org/2000/svg" xmlns:xlink="http://www.w3.org/1999/xlink"
	 width="32" height="32" viewBox="-2 -2 32 32" enable-background="new -2 -2 32 32" xml:space="preserve">
<path fill="#646464" d="M29.501-1.802c0.394,0.285,0.555,0.666,0.481,1.143L25.411,26.77c-0.058,0.346-0.25,0.614-0.571,0.804
	c-0.166,0.096-0.351,0.143-0.552,0.143c-0.131,0-0.273-0.029-0.429-0.089l-8.089-3.305l-4.321,5.269
	C11.235,29.863,10.944,30,10.574,30c-0.154,0-0.286-0.023-0.393-0.072c-0.227-0.082-0.409-0.222-0.545-0.419
	c-0.137-0.197-0.206-0.413-0.206-0.651v-6.232l15.428-18.91L5.77,20.232l-7.053-2.894c-0.44-0.166-0.678-0.494-0.714-0.98
	c-0.023-0.477,0.167-0.828,0.572-1.054L28.286-1.839C28.465-1.946,28.654-2,28.857-2c0.239,0,0.453,0.065,0.644,0.196V-1.802z"/>
</svg>
