<?xml version="1.0" encoding="utf-8"?>
<!-- Generator: Adobe Illustrator 15.1.0, SVG Export Plug-In . SVG Version: 6.00 Build 0)  -->

<svg version="1.1" xmlns="http://www.w3.org/2000/svg" xmlns:xlink="http://www.w3.org/1999/xlink"
	 width="32" height="32" viewBox="0 0 32 32">
<path fill="#646464" d="M24.938,18.667h-2.271c-0.359,0-0.672-0.132-0.938-0.396c-0.264-0.266-0.395-0.578-0.395-0.938v-2.667
	c0-0.361,0.131-0.674,0.395-0.938c0.266-0.265,0.578-0.396,0.938-0.396h2.271c-0.443-1.5-1.227-2.809-2.344-3.928
	c-1.117-1.117-2.428-1.898-3.928-2.344v2.271c0,0.361-0.131,0.673-0.395,0.938c-0.266,0.264-0.578,0.396-0.939,0.396h-2.667
	c-0.361,0-0.673-0.132-0.938-0.396c-0.264-0.265-0.396-0.576-0.396-0.938V7.061c-1.5,0.444-2.81,1.227-3.927,2.344
	c-1.118,1.119-1.899,2.428-2.344,3.928h2.271c0.36,0,0.674,0.133,0.938,0.396c0.264,0.263,0.396,0.576,0.396,0.938v2.667
	c0,0.36-0.132,0.673-0.396,0.938c-0.265,0.264-0.576,0.395-0.938,0.396H7.062c0.443,1.5,1.226,2.81,2.344,3.927
	c1.117,1.118,2.427,1.899,3.927,2.344v-2.271c0-0.36,0.132-0.673,0.396-0.937c0.265-0.265,0.576-0.396,0.938-0.396h2.667
	c0.361,0,0.674,0.131,0.939,0.396c0.262,0.264,0.395,0.576,0.395,0.937v2.271c1.5-0.443,2.811-1.226,3.928-2.344
	C23.711,21.477,24.492,20.167,24.938,18.667z M32,14.667v2.667c0,0.361-0.133,0.673-0.396,0.938s-0.576,0.396-0.938,0.396h-2.979
	c-0.516,2.236-1.588,4.17-3.221,5.803c-1.631,1.633-3.564,2.704-5.801,3.219v2.979c0,0.361-0.133,0.674-0.396,0.938
	C18.006,31.868,17.693,32,17.334,32h-2.667c-0.36,0-0.673-0.131-0.937-0.396c-0.265-0.264-0.396-0.576-0.396-0.938v-2.979
	c-2.236-0.515-4.17-1.586-5.802-3.219s-2.705-3.566-3.22-5.803H1.333c-0.361,0-0.673-0.132-0.938-0.396
	C0.132,18.005,0,17.693,0,17.332v-2.667c0-0.36,0.132-0.674,0.396-0.938c0.265-0.264,0.578-0.396,0.938-0.396h2.979
	c0.515-2.235,1.588-4.17,3.22-5.802c1.632-1.633,3.565-2.705,5.802-3.219V1.331c0-0.36,0.132-0.675,0.396-0.938
	C13.993,0.132,14.306,0,14.667,0h2.667c0.361,0,0.672,0.132,0.938,0.396c0.264,0.265,0.395,0.576,0.396,0.938v2.979
	c2.236,0.515,4.17,1.588,5.803,3.219c1.631,1.633,2.703,3.566,3.219,5.803h2.979c0.361,0,0.674,0.133,0.938,0.396
	C31.867,13.993,32,14.307,32,14.667z"/>
</svg>
