<?xml version="1.0" encoding="utf-8"?>
<!-- Generator: Adobe Illustrator 15.1.0, SVG Export Plug-In . SVG Version: 6.00 Build 0)  -->

<svg version="1.1" xmlns="http://www.w3.org/2000/svg" xmlns:xlink="http://www.w3.org/1999/xlink"
	 width="32" height="32" viewBox="484 484 32 32" enable-background="new 484 484 32 32" xml:space="preserve">
<path fill="#646464" d="M500,484c2.163,0,4.234,0.421,6.213,1.262s3.684,1.978,5.115,3.411c1.431,1.433,2.567,3.138,3.41,5.114
	c0.844,1.977,1.264,4.048,1.262,6.213c-0.002,2.166-0.423,4.236-1.262,6.214c-0.838,1.977-1.976,3.682-3.41,5.114
	c-1.436,1.434-3.141,2.57-5.115,3.411S502.168,516,500,516c-2.167,0-4.238-0.42-6.213-1.261s-3.68-1.978-5.115-3.411
	c-1.436-1.433-2.573-3.138-3.411-5.114c-0.838-1.978-1.259-4.048-1.261-6.214c-0.002-2.165,0.418-4.236,1.261-6.213
	s1.98-3.682,3.411-5.114c1.431-1.434,3.136-2.57,5.115-3.411S497.837,484,500,484z M500,488.16c-2.146,0-4.127,0.526-5.947,1.58
	c-1.819,1.055-3.257,2.492-4.313,4.313c-1.056,1.821-1.583,3.804-1.581,5.946c0.002,2.144,0.529,4.127,1.581,5.95
	c1.052,1.824,2.489,3.261,4.313,4.31c1.824,1.05,3.806,1.576,5.947,1.581c2.141,0.004,4.124-0.522,5.95-1.581
	c1.825-1.058,3.263-2.494,4.31-4.31c1.047-1.814,1.574-3.798,1.58-5.95c0.007-2.151-0.52-4.134-1.58-5.946s-2.497-3.25-4.31-4.313
	C504.138,488.677,502.155,488.151,500,488.16L500,488.16z M497.92,491.68h1.388c0.184,0,0.346,0.07,0.486,0.21
	c0.14,0.14,0.208,0.301,0.207,0.482V500h4.852c0.187,0,0.349,0.07,0.486,0.21s0.207,0.301,0.21,0.482v1.388
	c0,0.185-0.07,0.347-0.21,0.486s-0.302,0.208-0.486,0.206h-6.932c-0.184,0-0.346-0.068-0.486-0.206
	c-0.14-0.138-0.208-0.3-0.206-0.486v-9.707c0-0.185,0.069-0.345,0.206-0.482C497.572,491.753,497.734,491.682,497.92,491.68
	L497.92,491.68z"/>
</svg>
