<?xml version="1.0" encoding="utf-8"?>
<!-- Generator: Adobe Illustrator 15.1.0, SVG Export Plug-In . SVG Version: 6.00 Build 0)  -->

<svg version="1.1" xmlns="http://www.w3.org/2000/svg" xmlns:xlink="http://www.w3.org/1999/xlink"
	 width="32" height="32" viewBox="0 0 32 32">
<path fill="#646464" d="M28.873,28.38c-1.864,0-3.374-1.514-3.374-3.383c0-0.682,0.201-1.314,0.546-1.847l-5.276-7.166
	c-0.098,0.009-0.196,0.014-0.295,0.014s-0.198-0.005-0.295-0.014l-4.73,4.958c0.345,0.532,0.548,1.168,0.548,1.849
	c0,1.868-1.511,3.383-3.375,3.383c-1.865,0-3.375-1.515-3.375-3.383c0-0.707,0.217-1.364,0.586-1.907L3.844,10.377
	c-0.073,0.005-0.147,0.008-0.222,0.008c-1.864,0-3.375-1.515-3.375-3.383s1.51-3.383,3.375-3.383c1.864,0,3.375,1.515,3.375,3.383
	c0,0.707-0.217,1.364-0.586,1.907l5.988,10.506c0.073-0.004,0.147-0.007,0.223-0.007c0.098,0,0.197,0.005,0.294,0.013l4.73-4.958
	c-0.345-0.531-0.546-1.166-0.546-1.847c0-1.869,1.51-3.384,3.374-3.384s3.375,1.515,3.375,3.384c0,0.682-0.204,1.316-0.549,1.847
	l5.278,7.165c0.097-0.008,0.195-0.013,0.295-0.013c1.864,0,3.375,1.516,3.375,3.383c0,1.868-1.511,3.384-3.375,3.384V28.38z
	 M3.627,5.332c-0.915,0-1.655,0.741-1.655,1.656s0.741,1.655,1.655,1.655s1.655-0.741,1.655-1.655S4.542,5.332,3.627,5.332z
	 M12.622,21.087c-0.915,0-1.656,0.741-1.656,1.655s0.741,1.656,1.656,1.656s1.655-0.742,1.655-1.656S13.536,21.087,12.622,21.087z
	 M28.839,23.312c-0.914,0-1.655,0.741-1.655,1.655s0.741,1.655,1.655,1.655s1.655-0.741,1.655-1.655S29.753,23.312,28.839,23.312z
	 M20.424,10.861c-0.914,0-1.656,0.741-1.656,1.655s0.742,1.655,1.656,1.655c0.913,0,1.655-0.741,1.655-1.655
	S21.337,10.861,20.424,10.861z"/>
</svg>
