<?xml version="1.0" encoding="utf-8"?>
<!-- Generator: Adobe Illustrator 15.1.0, SVG Export Plug-In . SVG Version: 6.00 Build 0)  -->

<svg version="1.1" xmlns="http://www.w3.org/2000/svg" xmlns:xlink="http://www.w3.org/1999/xlink" width="32"
	 height="32" viewBox="0 0 32 32">
<g id="Layer_2">
</g>
<g>
	<path fill="#646464" d="M28.742,25.155c-0.588-0.097-0.603-1.713-0.603-1.713s1.729-1.712,2.105-4.014
		c1.014,0,1.642-2.447,0.627-3.308c0.043-0.907,1.304-7.114-5.079-7.114c-6.381,0-5.121,6.208-5.077,7.114
		c-1.017,0.86-0.389,3.308,0.625,3.308c0.376,2.302,2.106,4.014,2.106,4.014s-0.015,1.616-0.602,1.713
		c-0.201,0.032-0.469,0.102-0.771,0.193c3.013,1.72,5.893,4.122,5.893,6.651h9.748C37.715,28.577,30.638,25.456,28.742,25.155z"/>
	<path fill="#646464" d="M13.398,22.813c-0.79-0.127-0.81-2.297-0.81-2.297s2.32-2.299,2.826-5.386c1.361,0,2.201-3.284,0.842-4.439
		c0.057-1.216,1.748-9.547-6.816-9.547c-8.563,0-6.873,8.332-6.817,9.547c-1.359,1.155-0.52,4.439,0.84,4.439
		c0.506,3.087,2.828,5.386,2.828,5.386s-0.02,2.17-0.809,2.297C2.938,23.217-6.561,27.406-6.561,32h32
		C25.439,27.406,15.94,23.217,13.398,22.813L13.398,22.813z"/>
</g>
</svg>
