<?xml version="1.0" encoding="utf-8"?>
<!-- Generator: Adobe Illustrator 15.1.0, SVG Export Plug-In . SVG Version: 6.00 Build 0)  -->

<svg version="1.1" xmlns="http://www.w3.org/2000/svg" xmlns:xlink="http://www.w3.org/1999/xlink"
	 width="32" height="32" viewBox="0 0 32 32">
<path fill="#646464" d="M19.958,22.812c-0.79-0.126-0.809-2.297-0.809-2.297s2.32-2.298,2.826-5.387c1.36,0,2.201-3.284,0.841-4.439
	C22.873,9.473,24.564,1.142,16,1.142s-6.873,8.332-6.817,9.547c-1.36,1.155-0.52,4.439,0.84,4.439
	c0.505,3.089,2.827,5.387,2.827,5.387s-0.019,2.171-0.808,2.297C9.498,23.217-0.001,27.406-0.001,32h32
	C31.999,27.406,22.5,23.217,19.958,22.812L19.958,22.812z"/>
</svg>
