<?xml version="1.0" encoding="utf-8"?>
<!-- Generator: Adobe Illustrator 15.1.0, SVG Export Plug-In . SVG Version: 6.00 Build 0)  -->

<svg version="1.1" xmlns="http://www.w3.org/2000/svg" xmlns:xlink="http://www.w3.org/1999/xlink"
	 width="32" height="32" viewBox="-8 -8 32 32" enable-background="new -8 -8 32 32" xml:space="preserve">
<path fill="#646464" d="M24,11.631v2.875h-2.829L17.6,10.877l-3.57,3.629H11.2v-2.875l3.57-3.63L11.2,4.37V1.494h2.829l3.57,3.631
	l3.571-3.631H24V4.37l-3.571,3.631L24,11.631z M5.867,24c-0.276,0-0.55-0.116-0.755-0.335l-8.222-8.809h-3.824
	C-7.522,14.856-8,14.344-8,13.714V2.287c0-0.631,0.478-1.144,1.066-1.144h3.824l8.222-8.808c0.306-0.328,0.764-0.426,1.162-0.247
	c0.399,0.179,0.66,0.593,0.66,1.056v29.713c0,0.461-0.261,0.879-0.66,1.056C6.143,23.973,6.004,24,5.867,24z"/>
</svg>
