<?xml version="1.0" encoding="utf-8"?>
<!-- Generator: Adobe Illustrator 15.1.0, SVG Export Plug-In . SVG Version: 6.00 Build 0)  -->

<svg version="1.1" xmlns="http://www.w3.org/2000/svg" xmlns:xlink="http://www.w3.org/1999/xlink"
	 width="32" height="32" viewBox="-2 -2 32 32" enable-background="new -2 -2 32 32" xml:space="preserve">
<path fill="#646464" d="M30,20.286V26c0,0.476-0.167,0.881-0.5,1.214c-0.335,0.333-0.739,0.5-1.214,0.5h-5.715
	c-0.476,0-0.881-0.167-1.214-0.5c-0.333-0.334-0.5-0.738-0.5-1.214v-5.714c0-0.476,0.167-0.881,0.5-1.215
	c0.335-0.332,0.738-0.5,1.214-0.5h1.715v-3.429h-9.144v3.429h1.715c0.476,0,0.88,0.168,1.214,0.5c0.333,0.335,0.5,0.739,0.5,1.215
	V26c0,0.476-0.167,0.881-0.5,1.214c-0.335,0.333-0.738,0.5-1.214,0.5h-5.714c-0.476,0-0.881-0.167-1.214-0.5
	c-0.333-0.334-0.5-0.738-0.5-1.214v-5.714c0-0.476,0.167-0.881,0.5-1.215c0.333-0.332,0.738-0.5,1.214-0.5h1.714v-3.429H3.714v3.429
	h1.714c0.476,0,0.88,0.168,1.213,0.5c0.333,0.335,0.5,0.739,0.5,1.215V26c0,0.476-0.166,0.881-0.5,1.214
	c-0.333,0.333-0.737,0.5-1.213,0.5h-5.714c-0.476,0-0.881-0.167-1.214-0.5C-1.833,26.88-2,26.476-2,26v-5.714
	c0-0.476,0.167-0.881,0.5-1.215c0.334-0.332,0.738-0.5,1.214-0.5h1.714v-3.429c0-0.618,0.226-1.154,0.679-1.606
	c0.452-0.453,0.987-0.679,1.606-0.679h9.143V9.429h-1.714c-0.476,0-0.881-0.167-1.214-0.5c-0.333-0.334-0.5-0.738-0.5-1.214V2
	c0-0.476,0.167-0.88,0.5-1.214c0.333-0.333,0.738-0.5,1.214-0.5h5.714c0.476,0,0.88,0.167,1.214,0.5
	c0.333,0.334,0.5,0.738,0.5,1.214v5.714c0,0.476-0.167,0.88-0.5,1.214c-0.335,0.333-0.738,0.5-1.214,0.5h-1.715v3.428h9.144
	c0.618,0,1.153,0.226,1.606,0.679c0.453,0.452,0.679,0.988,0.679,1.606v3.429h1.715c0.475,0,0.88,0.168,1.214,0.5
	C29.833,19.406,30,19.811,30,20.286z"/>
</svg>
